<svg xmlns="http://www.w3.org/2000/svg" viewBox="0 0 1600 1000" font-family="ui-monospace,Menlo,monospace">
<rect width="1600" height="1000" fill="#08080a"/>
<rect width="1600" height="52" fill="#0e0e11"/>
<circle cx="28" cy="26" r="6" fill="#3a3a40"/><circle cx="50" cy="26" r="6" fill="#3a3a40"/><circle cx="72" cy="26" r="6" fill="#3a3a40"/>
<rect x="440" y="12" width="720" height="28" rx="14" fill="#141418" stroke="rgba(245,245,240,0.10)"/>
<text x="800" y="30" fill="#82827c" font-size="12" text-anchor="middle" letter-spacing="1">barbod.studio/apps/loyalty-app/screens/home</text>
<line x1="0" y1="52" x2="1600" y2="52" stroke="rgba(245,245,240,0.10)"/><rect x="24" y="72" width="300" height="896" rx="0" fill="#141418" stroke="rgba(245,245,240,0.10)"/><text x="52" y="110" fill="#82827c" font-size="11" text-anchor="start" letter-spacing="1">COMPONENTS</text><rect x="48" y="130" width="252" height="62" rx="10" fill="#191920" stroke="rgba(245,245,240,0.10)"/><rect x="64" y="146" width="30" height="30" rx="7" fill="#0e0e11" stroke="rgba(245,245,240,0.10)"/><text x="110" y="165" fill="#ededed" font-size="13" text-anchor="start" letter-spacing="1">Header</text><text x="276" y="165" fill="#82827c" font-size="12" text-anchor="end" letter-spacing="1">⋮⋮</text><rect x="48" y="208" width="252" height="62" rx="10" fill="#191920" stroke="rgba(245,245,240,0.10)"/><rect x="64" y="224" width="30" height="30" rx="7" fill="#0e0e11" stroke="rgba(245,245,240,0.10)"/><text x="110" y="243" fill="#ededed" font-size="13" text-anchor="start" letter-spacing="1">Hero Card</text><text x="276" y="243" fill="#82827c" font-size="12" text-anchor="end" letter-spacing="1">⋮⋮</text><rect x="48" y="286" width="252" height="62" rx="10" fill="#191920" stroke="rgba(245,245,240,0.10)"/><rect x="64" y="302" width="30" height="30" rx="7" fill="#0e0e11" stroke="rgba(245,245,240,0.10)"/><text x="110" y="321" fill="#ededed" font-size="13" text-anchor="start" letter-spacing="1">List</text><text x="276" y="321" fill="#82827c" font-size="12" text-anchor="end" letter-spacing="1">⋮⋮</text><rect x="48" y="364" width="252" height="62" rx="10" fill="#191920" stroke="rgba(245,245,240,0.10)"/><rect x="64" y="380" width="30" height="30" rx="7" fill="#0e0e11" stroke="rgba(245,245,240,0.10)"/><text x="110" y="399" fill="#ededed" font-size="13" text-anchor="start" letter-spacing="1">Grid</text><text x="276" y="399" fill="#82827c" font-size="12" text-anchor="end" letter-spacing="1">⋮⋮</text><rect x="48" y="442" width="252" height="62" rx="10" fill="#191920" stroke="rgba(245,245,240,0.10)"/><rect x="64" y="458" width="30" height="30" rx="7" fill="#0e0e11" stroke="rgba(245,245,240,0.10)"/><text x="110" y="477" fill="#ededed" font-size="13" text-anchor="start" letter-spacing="1">Button</text><text x="276" y="477" fill="#82827c" font-size="12" text-anchor="end" letter-spacing="1">⋮⋮</text><rect x="48" y="520" width="252" height="62" rx="10" fill="#191920" stroke="rgba(245,245,240,0.10)"/><rect x="64" y="536" width="30" height="30" rx="7" fill="#0e0e11" stroke="rgba(245,245,240,0.10)"/><text x="110" y="555" fill="#ededed" font-size="13" text-anchor="start" letter-spacing="1">Input</text><text x="276" y="555" fill="#82827c" font-size="12" text-anchor="end" letter-spacing="1">⋮⋮</text><rect x="48" y="598" width="252" height="62" rx="10" fill="#191920" stroke="rgba(245,245,240,0.10)"/><rect x="64" y="614" width="30" height="30" rx="7" fill="#0e0e11" stroke="rgba(245,245,240,0.10)"/><text x="110" y="633" fill="#ededed" font-size="13" text-anchor="start" letter-spacing="1">Tabs</text><text x="276" y="633" fill="#82827c" font-size="12" text-anchor="end" letter-spacing="1">⋮⋮</text><rect x="48" y="676" width="252" height="62" rx="10" fill="#191920" stroke="rgba(245,245,240,0.10)"/><rect x="64" y="692" width="30" height="30" rx="7" fill="#0e0e11" stroke="rgba(245,245,240,0.10)"/><text x="110" y="711" fill="#ededed" font-size="13" text-anchor="start" letter-spacing="1">Chart</text><text x="276" y="711" fill="#82827c" font-size="12" text-anchor="end" letter-spacing="1">⋮⋮</text><rect x="48" y="754" width="252" height="62" rx="10" fill="#191920" stroke="rgba(245,245,240,0.10)"/><rect x="64" y="770" width="30" height="30" rx="7" fill="#0e0e11" stroke="rgba(245,245,240,0.10)"/><text x="110" y="789" fill="#ededed" font-size="13" text-anchor="start" letter-spacing="1">Avatar</text><text x="276" y="789" fill="#82827c" font-size="12" text-anchor="end" letter-spacing="1">⋮⋮</text><rect x="48" y="832" width="252" height="62" rx="10" fill="#191920" stroke="rgba(245,245,240,0.10)"/><rect x="64" y="848" width="30" height="30" rx="7" fill="#0e0e11" stroke="rgba(245,245,240,0.10)"/><text x="110" y="867" fill="#ededed" font-size="13" text-anchor="start" letter-spacing="1">Banner</text><text x="276" y="867" fill="#82827c" font-size="12" text-anchor="end" letter-spacing="1">⋮⋮</text><rect x="324" y="72" width="880" height="896" fill="#08080a"/><line x1="364" y1="72" x2="364" y2="968" stroke="rgba(245,245,240,0.03)"/><line x1="404" y1="72" x2="404" y2="968" stroke="rgba(245,245,240,0.03)"/><line x1="444" y1="72" x2="444" y2="968" stroke="rgba(245,245,240,0.03)"/><line x1="484" y1="72" x2="484" y2="968" stroke="rgba(245,245,240,0.03)"/><line x1="524" y1="72" x2="524" y2="968" stroke="rgba(245,245,240,0.03)"/><line x1="564" y1="72" x2="564" y2="968" stroke="rgba(245,245,240,0.03)"/><line x1="604" y1="72" x2="604" y2="968" stroke="rgba(245,245,240,0.03)"/><line x1="644" y1="72" x2="644" y2="968" stroke="rgba(245,245,240,0.03)"/><line x1="684" y1="72" x2="684" y2="968" stroke="rgba(245,245,240,0.03)"/><line x1="724" y1="72" x2="724" y2="968" stroke="rgba(245,245,240,0.03)"/><line x1="764" y1="72" x2="764" y2="968" stroke="rgba(245,245,240,0.03)"/><line x1="804" y1="72" x2="804" y2="968" stroke="rgba(245,245,240,0.03)"/><line x1="844" y1="72" x2="844" y2="968" stroke="rgba(245,245,240,0.03)"/><line x1="884" y1="72" x2="884" y2="968" stroke="rgba(245,245,240,0.03)"/><line x1="924" y1="72" x2="924" y2="968" stroke="rgba(245,245,240,0.03)"/><line x1="964" y1="72" x2="964" y2="968" stroke="rgba(245,245,240,0.03)"/><line x1="1004" y1="72" x2="1004" y2="968" stroke="rgba(245,245,240,0.03)"/><line x1="1044" y1="72" x2="1044" y2="968" stroke="rgba(245,245,240,0.03)"/><line x1="1084" y1="72" x2="1084" y2="968" stroke="rgba(245,245,240,0.03)"/><line x1="1124" y1="72" x2="1124" y2="968" stroke="rgba(245,245,240,0.03)"/><line x1="1164" y1="72" x2="1164" y2="968" stroke="rgba(245,245,240,0.03)"/><line x1="324" y1="112" x2="1204" y2="112" stroke="rgba(245,245,240,0.03)"/><line x1="324" y1="152" x2="1204" y2="152" stroke="rgba(245,245,240,0.03)"/><line x1="324" y1="192" x2="1204" y2="192" stroke="rgba(245,245,240,0.03)"/><line x1="324" y1="232" x2="1204" y2="232" stroke="rgba(245,245,240,0.03)"/><line x1="324" y1="272" x2="1204" y2="272" stroke="rgba(245,245,240,0.03)"/><line x1="324" y1="312" x2="1204" y2="312" stroke="rgba(245,245,240,0.03)"/><line x1="324" y1="352" x2="1204" y2="352" stroke="rgba(245,245,240,0.03)"/><line x1="324" y1="392" x2="1204" y2="392" stroke="rgba(245,245,240,0.03)"/><line x1="324" y1="432" x2="1204" y2="432" stroke="rgba(245,245,240,0.03)"/><line x1="324" y1="472" x2="1204" y2="472" stroke="rgba(245,245,240,0.03)"/><line x1="324" y1="512" x2="1204" y2="512" stroke="rgba(245,245,240,0.03)"/><line x1="324" y1="552" x2="1204" y2="552" stroke="rgba(245,245,240,0.03)"/><line x1="324" y1="592" x2="1204" y2="592" stroke="rgba(245,245,240,0.03)"/><line x1="324" y1="632" x2="1204" y2="632" stroke="rgba(245,245,240,0.03)"/><line x1="324" y1="672" x2="1204" y2="672" stroke="rgba(245,245,240,0.03)"/><line x1="324" y1="712" x2="1204" y2="712" stroke="rgba(245,245,240,0.03)"/><line x1="324" y1="752" x2="1204" y2="752" stroke="rgba(245,245,240,0.03)"/><line x1="324" y1="792" x2="1204" y2="792" stroke="rgba(245,245,240,0.03)"/><line x1="324" y1="832" x2="1204" y2="832" stroke="rgba(245,245,240,0.03)"/><line x1="324" y1="872" x2="1204" y2="872" stroke="rgba(245,245,240,0.03)"/><line x1="324" y1="912" x2="1204" y2="912" stroke="rgba(245,245,240,0.03)"/><line x1="324" y1="952" x2="1204" y2="952" stroke="rgba(245,245,240,0.03)"/><rect x="564" y="130" width="400" height="780" rx="44" fill="#0e0e11" stroke="rgba(245,245,240,0.2)" stroke-width="2"/><rect x="704" y="150" width="120" height="18" rx="9" fill="#191920"/><rect x="594" y="200" width="340" height="70" rx="12" fill="#191920" stroke="rgba(245,245,240,0.10)"/><circle cx="630" cy="235" r="18" fill="#141418"/><rect x="662" y="222" width="140" height="10" rx="5" fill="#57575e"/><rect x="662" y="244" width="90" height="8" rx="5" fill="#4a4a50"/><rect x="592" y="292" width="344" height="150" rx="12" fill="#20260f" stroke="#d6ff3f" stroke-width="1.6"/><rect x="587" y="287" width="10" height="10" fill="#d6ff3f"/><rect x="931" y="287" width="10" height="10" fill="#d6ff3f"/><rect x="587" y="437" width="10" height="10" fill="#d6ff3f"/><rect x="931" y="437" width="10" height="10" fill="#d6ff3f"/><rect x="618" y="320" width="180" height="12" rx="5" fill="#57575e"/><rect x="618" y="348" width="240" height="9" rx="5" fill="#4a4a50"/><rect x="618" y="380" width="130" height="36" rx="18" fill="#d6ff3f"/><text x="683" y="403" fill="#000" font-size="12" text-anchor="middle" letter-spacing="1">CTA</text><rect x="594" y="470" width="340" height="92" rx="12" fill="#191920" stroke="rgba(245,245,240,0.10)"/><rect x="614" y="488" width="56" height="56" rx="10" fill="#141418"/><rect x="690" y="496" width="160" height="10" rx="5" fill="#57575e"/><rect x="690" y="518" width="110" height="8" rx="5" fill="#4a4a50"/><rect x="594" y="578" width="340" height="92" rx="12" fill="#191920" stroke="rgba(245,245,240,0.10)"/><rect x="614" y="596" width="56" height="56" rx="10" fill="#141418"/><rect x="690" y="604" width="160" height="10" rx="5" fill="#57575e"/><rect x="690" y="626" width="110" height="8" rx="5" fill="#4a4a50"/><rect x="594" y="700" width="340" height="150" rx="12" fill="#191920" stroke="rgba(245,245,240,0.10)"/><rect x="615" y="782.9738913826644" width="22" height="43.02610861733556" rx="2" fill="#d6ff3f" opacity="0.3836369962664321"/>
<rect x="640" y="764.2241549625993" width="22" height="61.77584503740073" rx="2" fill="#d6ff3f" opacity="0.6018835114082322"/>
<rect x="665" y="801.4316127218306" width="22" height="24.568387278169396" rx="2" fill="#d6ff3f" opacity="0.6229525884846225"/>
<rect x="690" y="800.4953225731849" width="22" height="25.504677426815036" rx="2" fill="#d6ff3f" opacity="0.26422425347846"/>
<rect x="715" y="763.4930346749723" width="22" height="62.5069653250277" rx="2" fill="#d6ff3f" opacity="0.6207323457347229"/>
<rect x="740" y="741.0612542971969" width="22" height="84.93874570280315" rx="2" fill="#d6ff3f" opacity="0.45111746748443693"/>
<rect x="765" y="775.8664912112057" width="22" height="50.13350878879428" rx="2" fill="#d6ff3f" opacity="0.36754264088813215"/>
<rect x="790" y="756.9120315402746" width="22" height="69.08796845972539" rx="2" fill="#d6ff3f" opacity="0.32499403588008136"/>
<rect x="815" y="793.6730055086315" width="22" height="32.32699449136854" rx="2" fill="#d6ff3f" opacity="0.3238461633445695"/>
<rect x="840" y="736.4384620264173" width="22" height="89.56153797358274" rx="2" fill="#d6ff3f" opacity="0.45880920940544456"/>
<rect x="865" y="759.4625985480845" width="22" height="66.53740145191551" rx="2" fill="#d6ff3f" opacity="0.4986457178601995"/>
<rect x="890" y="782.4882321417332" width="22" height="43.511767858266836" rx="2" fill="#d6ff3f" opacity="0.34559460903983563"/><g opacity="0.75" transform="rotate(-4 1060 620)">
    <rect x="980" y="590" width="252" height="62" rx="10" fill="#191920" stroke="#d6ff3f"/>
    <text x="1040" y="626" fill="#ededed" font-size="13" text-anchor="start" letter-spacing="1">Tabs</text>
  </g><circle cx="1232" cy="652" r="10" fill="#d6ff3f"/><rect x="1204" y="72" width="372" height="896" rx="0" fill="#141418" stroke="rgba(245,245,240,0.10)"/><text x="1232" y="110" fill="#82827c" font-size="11" text-anchor="start" letter-spacing="1">INSPECTOR · HERO CARD</text><text x="1232" y="148" fill="#d6ff3f" font-size="12" text-anchor="start" letter-spacing="1">Layout</text><text x="1320" y="148" fill="#82827c" font-size="12" text-anchor="start" letter-spacing="1">Style</text><text x="1408" y="148" fill="#82827c" font-size="12" text-anchor="start" letter-spacing="1">Data</text><text x="1496" y="148" fill="#82827c" font-size="12" text-anchor="start" letter-spacing="1">Actions</text><line x1="1232" y1="160" x2="1300" y2="160" stroke="#d6ff3f" stroke-width="2"/><text x="1232" y="205" fill="#82827c" font-size="11" text-anchor="start" letter-spacing="1">width</text><rect x="1232" y="215" width="316" height="36" rx="8" fill="#191920" stroke="rgba(245,245,240,0.10)"/><rect x="1248" y="228" width="80" height="9" rx="5" fill="#4a4a50"/><text x="1232" y="267" fill="#82827c" font-size="11" text-anchor="start" letter-spacing="1">height</text><rect x="1232" y="277" width="316" height="36" rx="8" fill="#191920" stroke="rgba(245,245,240,0.10)"/><rect x="1248" y="290" width="117" height="9" rx="5" fill="#4a4a50"/><text x="1232" y="329" fill="#82827c" font-size="11" text-anchor="start" letter-spacing="1">padding</text><rect x="1232" y="339" width="316" height="36" rx="8" fill="#191920" stroke="rgba(245,245,240,0.10)"/><rect x="1248" y="352" width="154" height="9" rx="5" fill="#4a4a50"/><text x="1232" y="391" fill="#82827c" font-size="11" text-anchor="start" letter-spacing="1">radius</text><rect x="1232" y="401" width="316" height="36" rx="8" fill="#191920" stroke="rgba(245,245,240,0.10)"/><rect x="1248" y="414" width="191" height="9" rx="5" fill="#4a4a50"/><text x="1232" y="453" fill="#82827c" font-size="11" text-anchor="start" letter-spacing="1">bind</text><rect x="1232" y="463" width="316" height="36" rx="8" fill="#191920" stroke="rgba(245,245,240,0.10)"/><rect x="1248" y="476" width="108" height="9" rx="5" fill="#4a4a50"/><text x="1232" y="515" fill="#82827c" font-size="11" text-anchor="start" letter-spacing="1">visible if</text><rect x="1232" y="525" width="316" height="36" rx="8" fill="#191920" stroke="rgba(245,245,240,0.10)"/><rect x="1248" y="538" width="145" height="9" rx="5" fill="#4a4a50"/><text x="1232" y="577" fill="#82827c" font-size="11" text-anchor="start" letter-spacing="1">on tap</text><rect x="1232" y="587" width="316" height="36" rx="8" fill="#191920" stroke="rgba(245,245,240,0.10)"/><rect x="1248" y="600" width="182" height="9" rx="5" fill="#4a4a50"/><rect x="1232" y="680" width="316" height="240" rx="12" fill="#0e0e11" stroke="rgba(245,245,240,0.10)"/><text x="1252" y="712" fill="#82827c" font-size="10" text-anchor="start" letter-spacing="1">PUBLISH PIPELINE</text><circle cx="1268" cy="742" r="6" fill="#d6ff3f"/><line x1="1268" y1="748" x2="1268" y2="778" stroke="rgba(245,245,240,0.10)"/><text x="1290" y="747" fill="#ededed" font-size="13" text-anchor="start" letter-spacing="1">Draft</text><circle cx="1268" cy="784" r="6" fill="#d6ff3f"/><line x1="1268" y1="790" x2="1268" y2="820" stroke="rgba(245,245,240,0.10)"/><text x="1290" y="789" fill="#ededed" font-size="13" text-anchor="start" letter-spacing="1">Merge</text><circle cx="1268" cy="826" r="6" fill="#4a4a50"/><line x1="1268" y1="832" x2="1268" y2="862" stroke="rgba(245,245,240,0.10)"/><text x="1290" y="831" fill="#82827c" font-size="13" text-anchor="start" letter-spacing="1">Publish</text><circle cx="1268" cy="868" r="6" fill="#4a4a50"/><text x="1290" y="873" fill="#82827c" font-size="13" text-anchor="start" letter-spacing="1">Rollback</text>
<g opacity="0.55">
  <rect x="1386" y="956" width="198" height="28" rx="14" fill="#191920" stroke="rgba(245,245,240,0.10)"/>
  <text x="1485" y="975" fill="#82827c" font-size="12" text-anchor="middle" letter-spacing="2">PLACEHOLDER</text>
</g>
</svg>