<svg xmlns="http://www.w3.org/2000/svg" viewBox="0 0 1600 1000" font-family="ui-monospace,Menlo,monospace">
<rect width="1600" height="1000" fill="#08080a"/>
<rect width="1600" height="52" fill="#0e0e11"/>
<circle cx="28" cy="26" r="6" fill="#3a3a40"/><circle cx="50" cy="26" r="6" fill="#3a3a40"/><circle cx="72" cy="26" r="6" fill="#3a3a40"/>
<rect x="440" y="12" width="720" height="28" rx="14" fill="#141418" stroke="rgba(245,245,240,0.10)"/>
<text x="800" y="30" fill="#82827c" font-size="12" text-anchor="middle" letter-spacing="1">chatomatic.app/dashboard/assistants/support-bot</text>
<line x1="0" y1="52" x2="1600" y2="52" stroke="rgba(245,245,240,0.10)"/><rect x="0" y="52" width="240" height="948" fill="#0e0e11"/><line x1="240" y1="52" x2="240" y2="1000" stroke="rgba(245,245,240,0.10)"/><circle cx="40" cy="100" r="12" fill="#d6ff3f"/><text x="64" y="105" fill="#ededed" font-size="14" text-anchor="start" letter-spacing="1">chatomatic</text><text x="36" y="166" fill="#82827c" font-size="13" text-anchor="start" letter-spacing="1">Assistants</text><rect x="16" y="188" width="208" height="38" rx="10" fill="#191920"/><text x="36" y="212" fill="#ededed" font-size="13" text-anchor="start" letter-spacing="1">Playground</text><text x="36" y="258" fill="#82827c" font-size="13" text-anchor="start" letter-spacing="1">Knowledge</text><text x="36" y="304" fill="#82827c" font-size="13" text-anchor="start" letter-spacing="1">Embed</text><text x="36" y="350" fill="#82827c" font-size="13" text-anchor="start" letter-spacing="1">Analytics</text><text x="36" y="396" fill="#82827c" font-size="13" text-anchor="start" letter-spacing="1">Settings</text><rect x="270" y="84" width="860" height="880" rx="14" fill="#141418" stroke="rgba(245,245,240,0.10)"/><text x="300" y="122" fill="#82827c" font-size="11" text-anchor="start" letter-spacing="1">PLAYGROUND · SUPPORT-BOT</text><rect x="950" y="100" width="160" height="26" rx="13" fill="#191920" stroke="rgba(245,245,240,0.10)"/>
<text x="1030" y="117" fill="#d6ff3f" font-size="11" text-anchor="middle" letter-spacing="1">STREAMING</text><rect x="680" y="150" width="420" height="70" rx="14" fill="#1d2410" stroke="rgba(214,255,63,0.3)"/><rect x="700" y="170" width="360" height="8" rx="5" fill="#4a4a50"/><rect x="700" y="190" width="300" height="8" rx="5" fill="#4a4a50"/><rect x="300" y="240" width="560" height="70" rx="14" fill="#191920" stroke="rgba(245,245,240,0.10)"/><rect x="320" y="260" width="500" height="8" rx="5" fill="#4a4a50"/><rect x="320" y="280" width="440" height="8" rx="5" fill="#4a4a50"/><rect x="720" y="330" width="380" height="70" rx="14" fill="#1d2410" stroke="rgba(214,255,63,0.3)"/><rect x="740" y="350" width="320" height="8" rx="5" fill="#4a4a50"/><rect x="740" y="370" width="260" height="8" rx="5" fill="#4a4a50"/><rect x="300" y="420" width="640" height="210" rx="14" fill="#191920" stroke="rgba(245,245,240,0.10)"/><rect x="320" y="445" width="560" height="9" rx="5" fill="#4a4a50"/><rect x="320" y="471" width="520" height="9" rx="5" fill="#4a4a50"/><rect x="320" y="497" width="480" height="9" rx="5" fill="#4a4a50"/><rect x="320" y="523" width="440" height="9" rx="5" fill="#4a4a50"/><rect x="320" y="549" width="400" height="9" rx="5" fill="#4a4a50"/><rect x="320" y="580" width="26" height="18" rx="9" fill="#d6ff3f" opacity="0.9"/><text x="333" y="593" fill="#000" font-size="11" text-anchor="middle" letter-spacing="1">1</text><rect x="352" y="580" width="26" height="18" rx="9" fill="#d6ff3f" opacity="0.6"/><text x="365" y="593" fill="#000" font-size="11" text-anchor="middle" letter-spacing="1">2</text><text x="395" y="593" fill="#82827c" font-size="11" text-anchor="start" letter-spacing="1">SOURCES · knowledge-base/pricing.md</text><rect x="900" y="600" width="14" height="20" rx="3" fill="#d6ff3f"><animate attributeName="opacity" values="1;0.2;1" dur="1.2s" repeatCount="indefinite"/></rect><rect x="300" y="880" width="760" height="56" rx="28" fill="#0e0e11" stroke="rgba(245,245,240,0.2)"/><rect x="330" y="903" width="280" height="10" rx="5" fill="#4a4a50"/><circle cx="1024" cy="908" r="20" fill="#d6ff3f"/><path d="M1018 908h12m-5-5 5 5-5 5" stroke="#000" stroke-width="2" fill="none"/><rect x="1150" y="84" width="426" height="880" rx="14" fill="#141418" stroke="rgba(245,245,240,0.10)"/><text x="1176" y="122" fill="#82827c" font-size="11" text-anchor="start" letter-spacing="1">RETRIEVAL · TOP-5 · pgvector</text><rect x="1176" y="145" width="374" height="100" rx="10" fill="#191920" stroke="rgba(245,245,240,0.10)"/><rect x="1190" y="160" width="300" height="6" rx="3" fill="#d6ff3f" opacity="0.9"/><rect x="1190" y="180" width="320" height="8" rx="5" fill="#4a4a50"/><rect x="1190" y="200" width="260" height="8" rx="5" fill="#4a4a50"/><text x="1490" y="168" fill="#d6ff3f" font-size="11" text-anchor="start" letter-spacing="1">0.92</text><rect x="1176" y="265" width="374" height="100" rx="10" fill="#191920" stroke="rgba(245,245,240,0.10)"/><rect x="1190" y="280" width="252" height="6" rx="3" fill="#d6ff3f" opacity="0.75"/><rect x="1190" y="300" width="320" height="8" rx="5" fill="#4a4a50"/><rect x="1190" y="320" width="260" height="8" rx="5" fill="#4a4a50"/><text x="1490" y="288" fill="#d6ff3f" font-size="11" text-anchor="start" letter-spacing="1">0.85</text><rect x="1176" y="385" width="374" height="100" rx="10" fill="#191920" stroke="rgba(245,245,240,0.10)"/><rect x="1190" y="400" width="203.99999999999997" height="6" rx="3" fill="#d6ff3f" opacity="0.6000000000000001"/><rect x="1190" y="420" width="320" height="8" rx="5" fill="#4a4a50"/><rect x="1190" y="440" width="260" height="8" rx="5" fill="#4a4a50"/><text x="1490" y="408" fill="#d6ff3f" font-size="11" text-anchor="start" letter-spacing="1">0.78</text><rect x="1176" y="505" width="374" height="100" rx="10" fill="#191920" stroke="rgba(245,245,240,0.10)"/><rect x="1190" y="520" width="156" height="6" rx="3" fill="#d6ff3f" opacity="0.45000000000000007"/><rect x="1190" y="540" width="320" height="8" rx="5" fill="#4a4a50"/><rect x="1190" y="560" width="260" height="8" rx="5" fill="#4a4a50"/><text x="1490" y="528" fill="#d6ff3f" font-size="11" text-anchor="start" letter-spacing="1">0.71</text><rect x="1176" y="625" width="374" height="100" rx="10" fill="#191920" stroke="rgba(245,245,240,0.10)"/><rect x="1190" y="640" width="108" height="6" rx="3" fill="#d6ff3f" opacity="0.30000000000000004"/><rect x="1190" y="660" width="320" height="8" rx="5" fill="#4a4a50"/><rect x="1190" y="680" width="260" height="8" rx="5" fill="#4a4a50"/><text x="1490" y="648" fill="#d6ff3f" font-size="11" text-anchor="start" letter-spacing="1">0.64</text><rect x="1176" y="760" width="374" height="180" rx="10" fill="#0e0e11" stroke="rgba(245,245,240,0.10)"/><text x="1196" y="790" fill="#82827c" font-size="10" text-anchor="start" letter-spacing="1">PIPELINE</text><circle cx="1206" cy="818" r="4" fill="#d6ff3f"/><text x="1224" y="823" fill="#ededed" font-size="12" text-anchor="start" letter-spacing="1">retrieve (ivfflat)</text><circle cx="1206" cy="852" r="4" fill="#d6ff3f"/><text x="1224" y="857" fill="#ededed" font-size="12" text-anchor="start" letter-spacing="1">stream tokens</text><circle cx="1206" cy="886" r="4" fill="#d6ff3f"/><text x="1224" y="891" fill="#ededed" font-size="12" text-anchor="start" letter-spacing="1">persist citations</text>
<g opacity="0.55">
  <rect x="1386" y="956" width="198" height="28" rx="14" fill="#191920" stroke="rgba(245,245,240,0.10)"/>
  <text x="1485" y="975" fill="#82827c" font-size="12" text-anchor="middle" letter-spacing="2">PLACEHOLDER</text>
</g>
</svg>