<svg xmlns="http://www.w3.org/2000/svg" viewBox="0 0 1600 1000" font-family="ui-monospace,Menlo,monospace">
<rect width="1600" height="1000" fill="#08080a"/>
<defs><marker id="ah2" markerWidth="10" markerHeight="10" refX="8" refY="3" orient="auto"><path d="M0,0L8,3L0,6Z" fill="#82827c"/></marker></defs><text x="80" y="90" fill="#d6ff3f" font-size="16" text-anchor="start" letter-spacing="3">TWO-PHASE STREAMING · HYBRID RAG</text><rect x="80" y="200" width="240" height="100" rx="12" fill="#141418" stroke="rgba(245,245,240,0.10)"/><text x="200" y="244" fill="#ededed" font-size="15" text-anchor="middle" letter-spacing="1">Question</text><text x="200" y="266" fill="#82827c" font-size="11" text-anchor="middle" letter-spacing="1">from widget / dashboard</text><line x1="320" y1="250" x2="420" y2="250" stroke="rgba(245,245,240,0.2)" stroke-width="1.6"  marker-end="url(#ah2)"/><rect x="420" y="180" width="300" height="140" rx="12" fill="#141418" stroke="rgba(245,245,240,0.10)"/><text x="570" y="244" fill="#ededed" font-size="15" text-anchor="middle" letter-spacing="1">Retrieval</text><text x="570" y="266" fill="#82827c" font-size="11" text-anchor="middle" letter-spacing="1">pgvector · IVFFlat · top-5</text><line x1="720" y1="250" x2="830" y2="250" stroke="rgba(245,245,240,0.2)" stroke-width="1.6"  marker-end="url(#ah2)"/><rect x="830" y="180" width="300" height="140" rx="12" fill="#141418" stroke="rgba(245,245,240,0.10)"/><text x="980" y="244" fill="#d6ff3f" font-size="15" text-anchor="middle" letter-spacing="1">Token Stream</text><text x="980" y="266" fill="#82827c" font-size="11" text-anchor="middle" letter-spacing="1">phase 1 · to client</text><line x1="1130" y1="250" x2="1250" y2="250" stroke="rgba(245,245,240,0.2)" stroke-width="1.6"  marker-end="url(#ah2)"/><rect x="1250" y="200" width="270" height="100" rx="12" fill="#141418" stroke="rgba(245,245,240,0.10)"/><text x="1385" y="244" fill="#ededed" font-size="15" text-anchor="middle" letter-spacing="1">Persist + Cite</text><text x="1385" y="266" fill="#82827c" font-size="11" text-anchor="middle" letter-spacing="1">phase 2 · after close</text><line x1="570" y1="320" x2="570" y2="430" stroke="rgba(245,245,240,0.2)" stroke-width="1.6" stroke-dasharray="5 6" marker-end="url(#ah2)"/><rect x="420" y="430" width="300" height="110" rx="12" fill="#141418" stroke="rgba(245,245,240,0.10)"/><text x="570" y="479" fill="#ededed" font-size="15" text-anchor="middle" letter-spacing="1">Full-context fallback</text><text x="570" y="501" fill="#82827c" font-size="11" text-anchor="middle" letter-spacing="1">low retrieval confidence</text><line x1="720" y1="485" x2="980" y2="330" stroke="rgba(245,245,240,0.2)" stroke-width="1.6" stroke-dasharray="5 6" marker-end="url(#ah2)"/><rect x="80" y="620" width="1440" height="280" rx="16" fill="#0e0e11" stroke="rgba(245,245,240,0.10)"/><text x="120" y="668" fill="#82827c" font-size="12" text-anchor="start" letter-spacing="2">INGESTION · 5 FORMATS</text><rect x="120" y="690" width="110" height="64" rx="10" fill="#191920" stroke="rgba(245,245,240,0.10)"/><text x="175" y="727" fill="#ededed" font-size="13" text-anchor="middle" letter-spacing="1">PDF</text><rect x="250" y="690" width="110" height="64" rx="10" fill="#191920" stroke="rgba(245,245,240,0.10)"/><text x="305" y="727" fill="#ededed" font-size="13" text-anchor="middle" letter-spacing="1">MD</text><rect x="380" y="690" width="110" height="64" rx="10" fill="#191920" stroke="rgba(245,245,240,0.10)"/><text x="435" y="727" fill="#ededed" font-size="13" text-anchor="middle" letter-spacing="1">HTML</text><rect x="510" y="690" width="110" height="64" rx="10" fill="#191920" stroke="rgba(245,245,240,0.10)"/><text x="565" y="727" fill="#ededed" font-size="13" text-anchor="middle" letter-spacing="1">TXT</text><rect x="640" y="690" width="110" height="64" rx="10" fill="#191920" stroke="rgba(245,245,240,0.10)"/><text x="695" y="727" fill="#ededed" font-size="13" text-anchor="middle" letter-spacing="1">URL</text><line x1="770" y1="722" x2="870" y2="722" stroke="rgba(245,245,240,0.2)" stroke-width="1.6"  marker-end="url(#ah2)"/><rect x="870" y="690" width="220" height="64" rx="12" fill="#141418" stroke="rgba(245,245,240,0.10)"/><text x="980" y="727" fill="#ededed" font-size="15" text-anchor="middle" letter-spacing="1">Chunker</text><line x1="1090" y1="722" x2="1190" y2="722" stroke="rgba(245,245,240,0.2)" stroke-width="1.6"  marker-end="url(#ah2)"/><rect x="1190" y="690" width="280" height="64" rx="12" fill="#141418" stroke="rgba(245,245,240,0.10)"/><text x="1330" y="727" fill="#ededed" font-size="15" text-anchor="middle" letter-spacing="1">Embeddings → pgvector</text><text x="120" y="810" fill="#82827c" font-size="13" text-anchor="start" letter-spacing="1">per-assistant model routing: OpenAI ↔ Ollama</text><rect x="120" y="830" width="560" height="8" rx="5" fill="#191920"/>
<g opacity="0.55">
  <rect x="1386" y="956" width="198" height="28" rx="14" fill="#191920" stroke="rgba(245,245,240,0.10)"/>
  <text x="1485" y="975" fill="#82827c" font-size="12" text-anchor="middle" letter-spacing="2">PLACEHOLDER</text>
</g>
</svg>