<svg xmlns="http://www.w3.org/2000/svg" viewBox="0 0 1600 1000" font-family="ui-monospace,Menlo,monospace">
<rect width="1600" height="1000" fill="#08080a"/>
<rect width="1600" height="52" fill="#0e0e11"/>
<circle cx="28" cy="26" r="6" fill="#3a3a40"/><circle cx="50" cy="26" r="6" fill="#3a3a40"/><circle cx="72" cy="26" r="6" fill="#3a3a40"/>
<rect x="440" y="12" width="720" height="28" rx="14" fill="#141418" stroke="rgba(245,245,240,0.10)"/>
<text x="800" y="30" fill="#82827c" font-size="12" text-anchor="middle" letter-spacing="1">customer-site.com/pricing</text>
<line x1="0" y1="52" x2="1600" y2="52" stroke="rgba(245,245,240,0.10)"/><rect x="0" y="52" width="1600" height="948" fill="#191a1e"/><rect x="80" y="120" width="300" height="22" rx="8" fill="#2c2d33"/><rect x="80" y="170" width="620" height="12" rx="5" fill="#26272c"/><rect x="80" y="196" width="540" height="12" rx="5" fill="#26272c"/><rect x="80" y="260" width="300" height="380" rx="14" fill="#1e1f24" stroke="rgba(245,245,240,0.08)"/><rect x="110" y="300" width="140" height="14" rx="5" fill="#2c2d33"/><rect x="110" y="340" width="90" height="26" rx="8" fill="#34353c"/><rect x="110" y="400" width="220" height="9" rx="5" fill="#26272c"/><rect x="110" y="430" width="205" height="9" rx="5" fill="#26272c"/><rect x="110" y="460" width="190" height="9" rx="5" fill="#26272c"/><rect x="110" y="490" width="175" height="9" rx="5" fill="#26272c"/><rect x="110" y="520" width="160" height="9" rx="5" fill="#26272c"/><rect x="110" y="580" width="240" height="40" rx="20" fill="#2c2d33"/><rect x="420" y="260" width="300" height="380" rx="14" fill="#1e1f24" stroke="rgba(245,245,240,0.08)"/><rect x="450" y="300" width="140" height="14" rx="5" fill="#2c2d33"/><rect x="450" y="340" width="90" height="26" rx="8" fill="#34353c"/><rect x="450" y="400" width="220" height="9" rx="5" fill="#26272c"/><rect x="450" y="430" width="205" height="9" rx="5" fill="#26272c"/><rect x="450" y="460" width="190" height="9" rx="5" fill="#26272c"/><rect x="450" y="490" width="175" height="9" rx="5" fill="#26272c"/><rect x="450" y="520" width="160" height="9" rx="5" fill="#26272c"/><rect x="450" y="580" width="240" height="40" rx="20" fill="#2c2d33"/><rect x="760" y="260" width="300" height="380" rx="14" fill="#1e1f24" stroke="rgba(245,245,240,0.08)"/><rect x="790" y="300" width="140" height="14" rx="5" fill="#2c2d33"/><rect x="790" y="340" width="90" height="26" rx="8" fill="#34353c"/><rect x="790" y="400" width="220" height="9" rx="5" fill="#26272c"/><rect x="790" y="430" width="205" height="9" rx="5" fill="#26272c"/><rect x="790" y="460" width="190" height="9" rx="5" fill="#26272c"/><rect x="790" y="490" width="175" height="9" rx="5" fill="#26272c"/><rect x="790" y="520" width="160" height="9" rx="5" fill="#26272c"/><rect x="790" y="580" width="240" height="40" rx="20" fill="#2c2d33"/><rect x="0" y="52" width="1600" height="948" fill="#000" opacity="0.35"/><rect x="1080" y="240" width="440" height="640" rx="20" fill="#0e0e11" stroke="rgba(245,245,240,0.2)"/><rect x="1080" y="240" width="440" height="70" rx="20" fill="#141418"/><rect x="1080" y="290" width="440" height="20" fill="#141418"/><circle cx="1120" cy="275" r="14" fill="#d6ff3f"/><text x="1148" y="280" fill="#ededed" font-size="14" text-anchor="start" letter-spacing="1">Support Assistant</text><text x="1494" y="280" fill="#82827c" font-size="18" text-anchor="middle" letter-spacing="1">×</text><rect x="1104" y="330" width="260" height="62" rx="12" fill="#191920" stroke="rgba(245,245,240,0.10)"/><rect x="1120" y="348" width="210" height="8" rx="5" fill="#4a4a50"/><rect x="1120" y="366" width="170" height="8" rx="5" fill="#4a4a50"/><rect x="1256" y="410" width="240" height="62" rx="12" fill="#1d2410" stroke="rgba(214,255,63,0.3)"/><rect x="1272" y="428" width="190" height="8" rx="5" fill="#4a4a50"/><rect x="1272" y="446" width="150" height="8" rx="5" fill="#4a4a50"/><rect x="1104" y="490" width="300" height="62" rx="12" fill="#191920" stroke="rgba(245,245,240,0.10)"/><rect x="1120" y="508" width="250" height="8" rx="5" fill="#4a4a50"/><rect x="1120" y="526" width="210" height="8" rx="5" fill="#4a4a50"/><rect x="1104" y="570" width="26" height="16" rx="8" fill="#d6ff3f"/><text x="1117" y="582" fill="#000" font-size="10" text-anchor="middle" letter-spacing="1">1</text><text x="1140" y="582" fill="#82827c" font-size="10" text-anchor="start" letter-spacing="1">cited from docs/refunds.md</text><rect x="1104" y="790" width="392" height="52" rx="26" fill="#141418" stroke="rgba(245,245,240,0.2)"/><rect x="1128" y="811" width="180" height="9" rx="5" fill="#4a4a50"/><circle cx="1462" cy="816" r="18" fill="#d6ff3f"/><circle cx="1500" cy="940" r="30" fill="#d6ff3f"/><path d="M1488 934h24m-24 10h14" stroke="#000" stroke-width="3" stroke-linecap="round"/><text x="1056" y="940" fill="#82827c" font-size="12" text-anchor="end" letter-spacing="1">Shadow DOM · one script tag</text>
<g opacity="0.55">
  <rect x="1386" y="956" width="198" height="28" rx="14" fill="#191920" stroke="rgba(245,245,240,0.10)"/>
  <text x="1485" y="975" fill="#82827c" font-size="12" text-anchor="middle" letter-spacing="2">PLACEHOLDER</text>
</g>
</svg>