<svg xmlns="http://www.w3.org/2000/svg" viewBox="0 0 1600 1000" font-family="ui-monospace,Menlo,monospace">
<rect width="1600" height="1000" fill="#08080a"/>
<rect width="1600" height="52" fill="#0e0e11"/>
<circle cx="28" cy="26" r="6" fill="#3a3a40"/><circle cx="50" cy="26" r="6" fill="#3a3a40"/><circle cx="72" cy="26" r="6" fill="#3a3a40"/>
<rect x="440" y="12" width="720" height="28" rx="14" fill="#141418" stroke="rgba(245,245,240,0.10)"/>
<text x="800" y="30" fill="#82827c" font-size="12" text-anchor="middle" letter-spacing="1">barbod.studio/books/persian-cooking/chapter-4</text>
<line x1="0" y1="52" x2="1600" y2="52" stroke="rgba(245,245,240,0.10)"/><rect x="24" y="72" width="1552" height="54" rx="14" fill="#141418" stroke="rgba(245,245,240,0.10)"/><rect x="44" y="86" width="28" height="26" rx="6" fill="#191920" stroke="rgba(245,245,240,0.10)"/><rect x="88" y="86" width="28" height="26" rx="6" fill="#191920" stroke="rgba(245,245,240,0.10)"/><rect x="132" y="86" width="28" height="26" rx="6" fill="#191920" stroke="rgba(245,245,240,0.10)"/><rect x="176" y="86" width="28" height="26" rx="6" fill="#191920" stroke="rgba(245,245,240,0.10)"/><rect x="220" y="86" width="28" height="26" rx="6" fill="#191920" stroke="rgba(245,245,240,0.10)"/><rect x="264" y="86" width="28" height="26" rx="6" fill="#191920" stroke="rgba(245,245,240,0.10)"/><rect x="308" y="86" width="28" height="26" rx="6" fill="#191920" stroke="rgba(245,245,240,0.10)"/><rect x="352" y="86" width="28" height="26" rx="6" fill="#191920" stroke="rgba(245,245,240,0.10)"/><rect x="396" y="86" width="28" height="26" rx="6" fill="#191920" stroke="rgba(245,245,240,0.10)"/><rect x="440" y="86" width="28" height="26" rx="6" fill="#191920" stroke="rgba(245,245,240,0.10)"/><rect x="484" y="86" width="28" height="26" rx="6" fill="#191920" stroke="rgba(245,245,240,0.10)"/><rect x="528" y="86" width="28" height="26" rx="6" fill="#191920" stroke="rgba(245,245,240,0.10)"/><rect x="1280" y="86" width="130" height="26" rx="13" fill="#191920" stroke="rgba(245,245,240,0.10)"/>
<text x="1345" y="103" fill="#d6ff3f" font-size="11" text-anchor="middle" letter-spacing="1">RTL ⇄ LTR</text><rect x="1426" y="86" width="120" height="26" rx="13" fill="#191920" stroke="rgba(245,245,240,0.10)"/>
<text x="1486" y="103" fill="#82827c" font-size="11" text-anchor="middle" letter-spacing="1">PREVIEW</text><rect x="24" y="142" width="762" height="826" rx="0" fill="#141418" stroke="rgba(245,245,240,0.10)"/><rect x="24" y="142" width="46" height="826" fill="#0e0e11"/><text x="58" y="178" fill="#4a4a50" font-size="11" text-anchor="end" letter-spacing="1">1</text><rect x="454.1777986101806" y="168" width="305.8222013898194" height="13" rx="5" fill="#d6ff3f"/><text x="58" y="209" fill="#4a4a50" font-size="11" text-anchor="end" letter-spacing="1">2</text><rect x="141.08306229580194" y="199" width="618.9169377041981" height="9" rx="5" fill="#4a4a50"/><text x="58" y="240" fill="#4a4a50" font-size="11" text-anchor="end" letter-spacing="1">3</text><rect x="185.11937112547457" y="230" width="574.8806288745254" height="9" rx="5" fill="#4a4a50"/><text x="58" y="271" fill="#4a4a50" font-size="11" text-anchor="end" letter-spacing="1">4</text><rect x="482.0740819675848" y="261" width="277.9259180324152" height="9" rx="5" fill="#4a4a50"/><text x="58" y="302" fill="#4a4a50" font-size="11" text-anchor="end" letter-spacing="1">5</text><rect x="262.1385454759002" y="292" width="497.8614545240998" height="9" rx="5" fill="#4a4a50"/><text x="58" y="333" fill="#4a4a50" font-size="11" text-anchor="end" letter-spacing="1">6</text><rect x="443.25972414109856" y="323" width="316.74027585890144" height="9" rx="5" fill="#57575e"/><text x="58" y="364" fill="#4a4a50" font-size="11" text-anchor="end" letter-spacing="1">7</text><rect x="553.1774134840816" y="354" width="206.82258651591837" height="9" rx="5" fill="#4a4a50"/><text x="58" y="395" fill="#4a4a50" font-size="11" text-anchor="end" letter-spacing="1">8</text><rect x="475.0310423737392" y="385" width="284.9689576262608" height="9" rx="5" fill="#4a4a50"/><text x="58" y="426" fill="#4a4a50" font-size="11" text-anchor="end" letter-spacing="1">9</text><rect x="406.65859961882234" y="416" width="353.34140038117766" height="9" rx="5" fill="#4a4a50"/><text x="58" y="457" fill="#4a4a50" font-size="11" text-anchor="end" letter-spacing="1">10</text><rect x="166.3819716544822" y="447" width="593.6180283455178" height="13" rx="5" fill="#d6ff3f"/><text x="58" y="488" fill="#4a4a50" font-size="11" text-anchor="end" letter-spacing="1">11</text><rect x="392.2196283657104" y="478" width="367.7803716342896" height="9" rx="5" fill="#57575e"/><text x="58" y="519" fill="#4a4a50" font-size="11" text-anchor="end" letter-spacing="1">12</text><rect x="217.75688547175378" y="509" width="542.2431145282462" height="9" rx="5" fill="#4a4a50"/><text x="58" y="550" fill="#4a4a50" font-size="11" text-anchor="end" letter-spacing="1">13</text><rect x="280.6413223594427" y="540" width="479.3586776405573" height="9" rx="5" fill="#4a4a50"/><text x="58" y="581" fill="#4a4a50" font-size="11" text-anchor="end" letter-spacing="1">14</text><rect x="177.9518027836457" y="571" width="582.0481972163543" height="9" rx="5" fill="#4a4a50"/><text x="58" y="612" fill="#4a4a50" font-size="11" text-anchor="end" letter-spacing="1">15</text><rect x="405.37989924661815" y="602" width="354.62010075338185" height="9" rx="5" fill="#4a4a50"/><text x="58" y="643" fill="#4a4a50" font-size="11" text-anchor="end" letter-spacing="1">16</text><rect x="297.6449284842238" y="633" width="462.3550715157762" height="9" rx="5" fill="#57575e"/><text x="58" y="674" fill="#4a4a50" font-size="11" text-anchor="end" letter-spacing="1">17</text><rect x="145.4366539977491" y="664" width="614.5633460022509" height="9" rx="5" fill="#4a4a50"/><text x="58" y="705" fill="#4a4a50" font-size="11" text-anchor="end" letter-spacing="1">18</text><rect x="167.34705470968038" y="695" width="592.6529452903196" height="9" rx="5" fill="#4a4a50"/><text x="58" y="736" fill="#4a4a50" font-size="11" text-anchor="end" letter-spacing="1">19</text><rect x="297.09208213724196" y="726" width="462.90791786275804" height="13" rx="5" fill="#d6ff3f"/><text x="58" y="767" fill="#4a4a50" font-size="11" text-anchor="end" letter-spacing="1">20</text><rect x="558.8709440780804" y="757" width="201.12905592191964" height="9" rx="5" fill="#4a4a50"/><text x="58" y="798" fill="#4a4a50" font-size="11" text-anchor="end" letter-spacing="1">21</text><rect x="199.04301811009645" y="788" width="560.9569818899035" height="9" rx="5" fill="#57575e"/><text x="58" y="829" fill="#4a4a50" font-size="11" text-anchor="end" letter-spacing="1">22</text><rect x="300.571159706451" y="819" width="459.428840293549" height="9" rx="5" fill="#4a4a50"/><text x="58" y="860" fill="#4a4a50" font-size="11" text-anchor="end" letter-spacing="1">23</text><rect x="190.4618317540735" y="850" width="569.5381682459265" height="9" rx="5" fill="#4a4a50"/><text x="58" y="891" fill="#4a4a50" font-size="11" text-anchor="end" letter-spacing="1">24</text><rect x="481.3519005989656" y="881" width="278.6480994010344" height="9" rx="5" fill="#4a4a50"/><text x="58" y="922" fill="#4a4a50" font-size="11" text-anchor="end" letter-spacing="1">25</text><rect x="213.19594459608197" y="912" width="546.804055403918" height="9" rx="5" fill="#4a4a50"/><text x="58" y="953" fill="#4a4a50" font-size="11" text-anchor="end" letter-spacing="1">26</text><rect x="400.53024474997073" y="943" width="359.46975525002927" height="9" rx="5" fill="#57575e"/><line x1="790" y1="142" x2="790" y2="968" stroke="rgba(245,245,240,0.2)"/><rect x="783" y="530" width="14" height="52" rx="7" fill="#191920" stroke="rgba(245,245,240,0.10)"/><rect x="794" y="142" width="782" height="826" rx="0" fill="#0e0e11" stroke="rgba(245,245,240,0.10)"/><rect x="1216" y="190" width="340" height="22" rx="6" fill="#ededed"/><rect x="1044.7325729709119" y="250" width="511.26742702908814" height="10" rx="5" fill="#57575e"/><rect x="1232.3185773836449" y="280" width="323.6814226163551" height="10" rx="5" fill="#57575e"/><rect x="1006.3136818110943" y="310" width="549.6863181889057" height="10" rx="5" fill="#57575e"/><rect x="1087.5107820322737" y="340" width="468.4892179677263" height="10" rx="5" fill="#57575e"/><rect x="1090.7564407158643" y="370" width="465.2435592841357" height="10" rx="5" fill="#57575e"/><rect x="1110.7767443442717" y="400" width="445.2232556557283" height="10" rx="5" fill="#57575e"/><rect x="926.6738192029297" y="430" width="629.3261807970703" height="10" rx="5" fill="#57575e"/><rect x="1165.2029269365594" y="460" width="390.7970730634406" height="10" rx="5" fill="#57575e"/><rect x="854" y="520" width="662" height="200" rx="12" fill="#141418" stroke="rgba(245,245,240,0.10)"/><text x="1500" y="552" fill="#82827c" font-size="12" text-anchor="end" letter-spacing="1">۴.۲ — تصویر</text><rect x="884" y="570" width="240" height="120" rx="8" fill="#191920"/><rect x="1216" y="585" width="300" height="9" rx="5" fill="#4a4a50"/><rect x="1216" y="615" width="300" height="9" rx="5" fill="#4a4a50"/><rect x="1216" y="645" width="300" height="9" rx="5" fill="#4a4a50"/><rect x="1168.2532468196005" y="760" width="387.74675318039954" height="10" rx="5" fill="#57575e"/><rect x="1101.9565657796338" y="790" width="454.0434342203662" height="10" rx="5" fill="#57575e"/><rect x="998.9485153034329" y="820" width="557.0514846965671" height="10" rx="5" fill="#57575e"/><rect x="943.7296170359477" y="850" width="612.2703829640523" height="10" rx="5" fill="#57575e"/><rect x="967.090931231156" y="880" width="588.909068768844" height="10" rx="5" fill="#57575e"/><rect x="1058.6017102459446" y="910" width="497.39828975405544" height="10" rx="5" fill="#57575e"/>
<g opacity="0.55">
  <rect x="1386" y="956" width="198" height="28" rx="14" fill="#191920" stroke="rgba(245,245,240,0.10)"/>
  <text x="1485" y="975" fill="#82827c" font-size="12" text-anchor="middle" letter-spacing="2">PLACEHOLDER</text>
</g>
</svg>