<svg xmlns="http://www.w3.org/2000/svg" viewBox="0 0 1600 1000" font-family="ui-monospace,Menlo,monospace">
<rect width="1600" height="1000" fill="#08080a"/>
<rect width="1600" height="52" fill="#0e0e11"/>
<circle cx="28" cy="26" r="6" fill="#3a3a40"/><circle cx="50" cy="26" r="6" fill="#3a3a40"/><circle cx="72" cy="26" r="6" fill="#3a3a40"/>
<rect x="440" y="12" width="720" height="28" rx="14" fill="#141418" stroke="rgba(245,245,240,0.10)"/>
<text x="800" y="30" fill="#82827c" font-size="12" text-anchor="middle" letter-spacing="1">grafana.local/d/fastify-api-overview</text>
<line x1="0" y1="52" x2="1600" y2="52" stroke="rgba(245,245,240,0.10)"/><rect x="24" y="76" width="366" height="130" rx="14" fill="#141418" stroke="rgba(245,245,240,0.10)"/><text x="52" y="112" fill="#82827c" font-size="11" text-anchor="start" letter-spacing="1">P95 LATENCY</text><text x="52" y="165" fill="#d6ff3f" font-size="34" text-anchor="start" letter-spacing="1">312ms</text><path d="M220.0,160.0L223.8,161.2L227.5,163.0L231.3,164.0L235.0,168.4L238.8,169.2L242.5,169.4L246.3,171.6L250.0,172.5L253.8,174.0L257.5,177.0L261.3,179.5L265.0,180.4L268.8,180.4L272.5,176.7L276.3,180.2L280.0,180.4L283.8,176.8L287.5,179.0L291.3,180.4L295.0,178.8L298.8,175.2L302.5,175.6L306.3,176.2L310.0,173.3L313.8,173.6L317.5,169.1L321.3,170.6L325.0,170.9L328.8,166.9L332.5,170.6L336.3,170.0L340.0,167.6L343.8,172.2L347.5,169.6L351.3,165.3L355.0,167.3L358.8,168.3L362.5,164.7L366.3,167.3L370.0,167.2" fill="none" stroke="#d6ff3f" stroke-width="2"/>
<path d="M220.0,160.0L223.8,161.2L227.5,163.0L231.3,164.0L235.0,168.4L238.8,169.2L242.5,169.4L246.3,171.6L250.0,172.5L253.8,174.0L257.5,177.0L261.3,179.5L265.0,180.4L268.8,180.4L272.5,176.7L276.3,180.2L280.0,180.4L283.8,176.8L287.5,179.0L291.3,180.4L295.0,178.8L298.8,175.2L302.5,175.6L306.3,176.2L310.0,173.3L313.8,173.6L317.5,169.1L321.3,170.6L325.0,170.9L328.8,166.9L332.5,170.6L336.3,170.0L340.0,167.6L343.8,172.2L347.5,169.6L351.3,165.3L355.0,167.3L358.8,168.3L362.5,164.7L366.3,167.3L370.0,167.2L370,186L220,186Z" fill="#d6ff3f" opacity="0.08"/><rect x="414" y="76" width="366" height="130" rx="14" fill="#141418" stroke="rgba(245,245,240,0.10)"/><text x="442" y="112" fill="#82827c" font-size="11" text-anchor="start" letter-spacing="1">REQ / S</text><text x="442" y="165" fill="#ededed" font-size="34" text-anchor="start" letter-spacing="1">1.4k</text><path d="M610.0,160.0L613.8,160.3L617.5,155.2L621.3,155.8L625.0,153.5L628.8,156.8L632.5,152.7L636.3,155.7L640.0,151.5L643.8,152.4L647.5,150.9L651.3,146.5L655.0,148.4L658.8,153.0L662.5,157.0L666.3,155.8L670.0,158.8L673.8,155.0L677.5,154.3L681.3,156.9L685.0,158.4L688.8,159.2L692.5,163.0L696.3,162.8L700.0,158.8L703.8,154.5L707.5,154.1L711.3,157.9L715.0,160.2L718.8,160.0L722.5,157.8L726.3,155.6L730.0,153.6L733.8,152.1L737.5,155.6L741.3,152.0L745.0,155.5L748.8,158.3L752.5,155.8L756.3,156.8L760.0,159.5" fill="none" stroke="#ededed" stroke-width="2"/>
<path d="M610.0,160.0L613.8,160.3L617.5,155.2L621.3,155.8L625.0,153.5L628.8,156.8L632.5,152.7L636.3,155.7L640.0,151.5L643.8,152.4L647.5,150.9L651.3,146.5L655.0,148.4L658.8,153.0L662.5,157.0L666.3,155.8L670.0,158.8L673.8,155.0L677.5,154.3L681.3,156.9L685.0,158.4L688.8,159.2L692.5,163.0L696.3,162.8L700.0,158.8L703.8,154.5L707.5,154.1L711.3,157.9L715.0,160.2L718.8,160.0L722.5,157.8L726.3,155.6L730.0,153.6L733.8,152.1L737.5,155.6L741.3,152.0L745.0,155.5L748.8,158.3L752.5,155.8L756.3,156.8L760.0,159.5L760,186L610,186Z" fill="#ededed" opacity="0.08"/><rect x="804" y="76" width="366" height="130" rx="14" fill="#141418" stroke="rgba(245,245,240,0.10)"/><text x="832" y="112" fill="#82827c" font-size="11" text-anchor="start" letter-spacing="1">ERROR RATE</text><text x="832" y="165" fill="#3fd68b" font-size="34" text-anchor="start" letter-spacing="1">0.02%</text><path d="M1000.0,160.0L1003.8,159.4L1007.5,157.4L1011.3,157.7L1015.0,158.8L1018.8,154.6L1022.5,156.2L1026.3,160.0L1030.0,160.8L1033.8,161.1L1037.5,165.0L1041.3,163.8L1045.0,166.0L1048.8,161.0L1052.5,162.7L1056.3,166.9L1060.0,168.3L1063.8,164.3L1067.5,160.6L1071.3,164.4L1075.0,169.0L1078.8,164.1L1082.5,161.2L1086.3,160.2L1090.0,155.0L1093.8,156.4L1097.5,160.0L1101.3,156.2L1105.0,160.3L1108.8,164.0L1112.5,166.0L1116.3,162.2L1120.0,160.6L1123.8,163.0L1127.5,162.5L1131.3,159.7L1135.0,154.6L1138.8,159.1L1142.5,157.6L1146.3,157.2L1150.0,152.5" fill="none" stroke="#3fd68b" stroke-width="2"/>
<path d="M1000.0,160.0L1003.8,159.4L1007.5,157.4L1011.3,157.7L1015.0,158.8L1018.8,154.6L1022.5,156.2L1026.3,160.0L1030.0,160.8L1033.8,161.1L1037.5,165.0L1041.3,163.8L1045.0,166.0L1048.8,161.0L1052.5,162.7L1056.3,166.9L1060.0,168.3L1063.8,164.3L1067.5,160.6L1071.3,164.4L1075.0,169.0L1078.8,164.1L1082.5,161.2L1086.3,160.2L1090.0,155.0L1093.8,156.4L1097.5,160.0L1101.3,156.2L1105.0,160.3L1108.8,164.0L1112.5,166.0L1116.3,162.2L1120.0,160.6L1123.8,163.0L1127.5,162.5L1131.3,159.7L1135.0,154.6L1138.8,159.1L1142.5,157.6L1146.3,157.2L1150.0,152.5L1150,186L1000,186Z" fill="#3fd68b" opacity="0.08"/><rect x="1194" y="76" width="366" height="130" rx="14" fill="#141418" stroke="rgba(245,245,240,0.10)"/><text x="1222" y="112" fill="#82827c" font-size="11" text-anchor="start" letter-spacing="1">CACHE HIT</text><text x="1222" y="165" fill="#d6ff3f" font-size="34" text-anchor="start" letter-spacing="1">94.7%</text><path d="M1390.0,160.0L1393.8,158.4L1397.5,159.7L1401.3,159.6L1405.0,164.0L1408.8,162.4L1412.5,159.6L1416.3,164.3L1420.0,159.9L1423.8,159.6L1427.5,159.0L1431.3,161.0L1435.0,163.4L1438.8,158.9L1442.5,158.3L1446.3,157.8L1450.0,157.7L1453.8,153.6L1457.5,156.9L1461.3,151.7L1465.0,149.3L1468.8,148.9L1472.5,149.3L1476.3,147.6L1480.0,151.3L1483.8,148.3L1487.5,145.8L1491.3,144.3L1495.0,140.3L1498.8,137.8L1502.5,135.6L1506.3,135.6L1510.0,135.6L1513.8,135.6L1517.5,135.6L1521.3,135.6L1525.0,135.6L1528.8,135.6L1532.5,135.6L1536.3,135.6L1540.0,135.6" fill="none" stroke="#d6ff3f" stroke-width="2"/>
<path d="M1390.0,160.0L1393.8,158.4L1397.5,159.7L1401.3,159.6L1405.0,164.0L1408.8,162.4L1412.5,159.6L1416.3,164.3L1420.0,159.9L1423.8,159.6L1427.5,159.0L1431.3,161.0L1435.0,163.4L1438.8,158.9L1442.5,158.3L1446.3,157.8L1450.0,157.7L1453.8,153.6L1457.5,156.9L1461.3,151.7L1465.0,149.3L1468.8,148.9L1472.5,149.3L1476.3,147.6L1480.0,151.3L1483.8,148.3L1487.5,145.8L1491.3,144.3L1495.0,140.3L1498.8,137.8L1502.5,135.6L1506.3,135.6L1510.0,135.6L1513.8,135.6L1517.5,135.6L1521.3,135.6L1525.0,135.6L1528.8,135.6L1532.5,135.6L1536.3,135.6L1540.0,135.6L1540,186L1390,186Z" fill="#d6ff3f" opacity="0.08"/><rect x="24" y="226" width="1010" height="360" rx="14" fill="#141418" stroke="rgba(245,245,240,0.10)"/><text x="52" y="262" fill="#82827c" font-size="11" text-anchor="start" letter-spacing="1">HTTP DURATION · p50 / p95 / p99</text><line x1="40" y1="300" x2="1018" y2="300" stroke="rgba(245,245,240,0.10)"/><line x1="40" y1="370" x2="1018" y2="370" stroke="rgba(245,245,240,0.10)"/><line x1="40" y1="440" x2="1018" y2="440" stroke="rgba(245,245,240,0.10)"/><line x1="40" y1="510" x2="1018" y2="510" stroke="rgba(245,245,240,0.10)"/><path d="M52.0,430.0L75.8,410.8L99.5,404.7L123.3,384.9L147.0,403.1L170.8,386.4L194.5,391.1L218.3,409.2L242.0,426.5L265.8,404.3L289.5,382.6L313.3,379.9L337.0,380.7L360.8,377.3L384.5,371.5L408.3,358.2L432.0,344.8L455.8,347.1L479.5,346.9L503.3,330.4L527.0,335.0L550.8,334.6L574.5,350.9L598.3,338.8L622.0,324.0L645.8,328.8L669.5,341.4L693.3,324.0L717.0,339.0L740.8,339.7L764.5,340.3L788.3,355.9L812.0,371.3L835.8,364.7L859.5,351.7L883.3,368.3L907.0,362.5L930.8,342.7L954.5,351.6L978.3,346.4L1002.0,351.4" fill="none" stroke="#d6ff3f" stroke-width="2"/>
<path d="M52.0,430.0L75.8,410.8L99.5,404.7L123.3,384.9L147.0,403.1L170.8,386.4L194.5,391.1L218.3,409.2L242.0,426.5L265.8,404.3L289.5,382.6L313.3,379.9L337.0,380.7L360.8,377.3L384.5,371.5L408.3,358.2L432.0,344.8L455.8,347.1L479.5,346.9L503.3,330.4L527.0,335.0L550.8,334.6L574.5,350.9L598.3,338.8L622.0,324.0L645.8,328.8L669.5,341.4L693.3,324.0L717.0,339.0L740.8,339.7L764.5,340.3L788.3,355.9L812.0,371.3L835.8,364.7L859.5,351.7L883.3,368.3L907.0,362.5L930.8,342.7L954.5,351.6L978.3,346.4L1002.0,351.4L1002,540L52,540Z" fill="#d6ff3f" opacity="0.08"/><path d="M52.0,443.7L75.8,461.3L99.5,467.9L123.3,449.2L147.0,439.9L170.8,434.9L194.5,422.7L218.3,403.8L242.0,399.7L265.8,415.9L289.5,417.6L313.3,427.2L337.0,428.8L360.8,427.6L384.5,413.9L408.3,422.5L432.0,405.0L455.8,406.3L479.5,394.9L503.3,384.7L527.0,400.5L550.8,416.6L574.5,405.5L598.3,392.3L622.0,374.1L645.8,361.6L669.5,351.0L693.3,351.0L717.0,351.0L740.8,366.0L764.5,382.1L788.3,390.0L812.0,404.8L835.8,414.0L859.5,425.3L883.3,442.8L907.0,443.1L930.8,432.6L954.5,444.1L978.3,434.0L1002.0,448.6" fill="none" stroke="#82827c" stroke-width="2"/>
<path d="M52.0,443.7L75.8,461.3L99.5,467.9L123.3,449.2L147.0,439.9L170.8,434.9L194.5,422.7L218.3,403.8L242.0,399.7L265.8,415.9L289.5,417.6L313.3,427.2L337.0,428.8L360.8,427.6L384.5,413.9L408.3,422.5L432.0,405.0L455.8,406.3L479.5,394.9L503.3,384.7L527.0,400.5L550.8,416.6L574.5,405.5L598.3,392.3L622.0,374.1L645.8,361.6L669.5,351.0L693.3,351.0L717.0,351.0L740.8,366.0L764.5,382.1L788.3,390.0L812.0,404.8L835.8,414.0L859.5,425.3L883.3,442.8L907.0,443.1L930.8,432.6L954.5,444.1L978.3,434.0L1002.0,448.6L1002,540L52,540Z" fill="#82827c" opacity="0.08"/><path d="M52.0,457.5L75.8,469.6L99.5,453.0L123.3,468.2L147.0,471.1L170.8,474.9L194.5,482.9L218.3,469.5L242.0,481.9L265.8,493.9L289.5,480.6L313.3,466.7L337.0,468.8L360.8,469.4L384.5,482.6L408.3,474.8L432.0,487.3L455.8,488.0L479.5,500.9L503.3,495.8L527.0,486.9L550.8,482.5L574.5,483.7L598.3,470.0L622.0,483.0L645.8,490.4L669.5,493.4L693.3,491.9L717.0,483.1L740.8,476.0L764.5,470.8L788.3,472.4L812.0,486.4L835.8,474.5L859.5,471.4L883.3,456.5L907.0,461.4L930.8,458.1L954.5,471.3L978.3,457.9L1002.0,446.7" fill="none" stroke="#ff5e3a" stroke-width="2"/>
<path d="M52.0,457.5L75.8,469.6L99.5,453.0L123.3,468.2L147.0,471.1L170.8,474.9L194.5,482.9L218.3,469.5L242.0,481.9L265.8,493.9L289.5,480.6L313.3,466.7L337.0,468.8L360.8,469.4L384.5,482.6L408.3,474.8L432.0,487.3L455.8,488.0L479.5,500.9L503.3,495.8L527.0,486.9L550.8,482.5L574.5,483.7L598.3,470.0L622.0,483.0L645.8,490.4L669.5,493.4L693.3,491.9L717.0,483.1L740.8,476.0L764.5,470.8L788.3,472.4L812.0,486.4L835.8,474.5L859.5,471.4L883.3,456.5L907.0,461.4L930.8,458.1L954.5,471.3L978.3,457.9L1002.0,446.7L1002,540L52,540Z" fill="#ff5e3a" opacity="0.08"/><rect x="1050" y="226" width="526" height="360" rx="14" fill="#141418" stroke="rgba(245,245,240,0.10)"/><text x="1078" y="262" fill="#82827c" font-size="11" text-anchor="start" letter-spacing="1">LOKI · CORRELATED LOGS</text><rect x="1078" y="282" width="4" height="22" rx="2" fill="#ff5e3a"/><rect x="1094" y="288" width="90" height="8" rx="5" fill="#57575e"/><rect x="1200" y="288" width="249.03836286161095" height="8" rx="5" fill="#4a4a50"/><rect x="1078" y="314" width="4" height="22" rx="2" fill="#ff5e5e"/><rect x="1094" y="320" width="90" height="8" rx="5" fill="#57575e"/><rect x="1200" y="320" width="321.53742409776896" height="8" rx="5" fill="#4a4a50"/><rect x="1078" y="346" width="4" height="22" rx="2" fill="#ff5e5e"/><rect x="1094" y="352" width="90" height="8" rx="5" fill="#57575e"/><rect x="1200" y="352" width="320.0844366895035" height="8" rx="5" fill="#4a4a50"/><rect x="1078" y="378" width="4" height="22" rx="2" fill="#82827c"/><rect x="1094" y="384" width="90" height="8" rx="5" fill="#57575e"/><rect x="1200" y="384" width="244.07774241175503" height="8" rx="5" fill="#4a4a50"/><rect x="1078" y="410" width="4" height="22" rx="2" fill="#ff5e3a"/><rect x="1094" y="416" width="90" height="8" rx="5" fill="#57575e"/><rect x="1200" y="416" width="276.270084627904" height="8" rx="5" fill="#4a4a50"/><rect x="1078" y="442" width="4" height="22" rx="2" fill="#82827c"/><rect x="1094" y="448" width="90" height="8" rx="5" fill="#57575e"/><rect x="1200" y="448" width="336.67428608518094" height="8" rx="5" fill="#4a4a50"/><rect x="1078" y="474" width="4" height="22" rx="2" fill="#82827c"/><rect x="1094" y="480" width="90" height="8" rx="5" fill="#57575e"/><rect x="1200" y="480" width="279.1462338389829" height="8" rx="5" fill="#4a4a50"/><rect x="1078" y="506" width="4" height="22" rx="2" fill="#ff5e5e"/><rect x="1094" y="512" width="90" height="8" rx="5" fill="#57575e"/><rect x="1200" y="512" width="336.370268962346" height="8" rx="5" fill="#4a4a50"/><rect x="1078" y="538" width="4" height="22" rx="2" fill="#82827c"/><rect x="1094" y="544" width="90" height="8" rx="5" fill="#57575e"/><rect x="1200" y="544" width="318.2884849468246" height="8" rx="5" fill="#4a4a50"/><rect x="24" y="606" width="1552" height="362" rx="14" fill="#141418" stroke="rgba(245,245,240,0.10)"/><text x="52" y="642" fill="#82827c" font-size="11" text-anchor="start" letter-spacing="1">TEMPO · TRACE waterfall · GET /reservations/:id</text><text x="52" y="690" fill="#82827c" font-size="11" text-anchor="start" letter-spacing="1">http request</text><rect x="200" y="674" width="1156.4" height="22" rx="5" fill="#d6ff3f" opacity="0.9"/><text x="52" y="734" fill="#82827c" font-size="11" text-anchor="start" letter-spacing="1">auth.verify</text><rect x="235.4" y="718" width="236" height="22" rx="5" fill="#82827c" opacity="0.55"/><text x="52" y="778" fill="#82827c" font-size="11" text-anchor="start" letter-spacing="1">redis.get (miss)</text><rect x="483.2" y="762" width="354" height="22" rx="5" fill="#ff5e3a" opacity="0.55"/><text x="52" y="822" fill="#82827c" font-size="11" text-anchor="start" letter-spacing="1">pg.query reservations</text><rect x="849" y="806" width="401.20000000000005" height="22" rx="5" fill="#ededed" opacity="0.55"/><text x="52" y="866" fill="#82827c" font-size="11" text-anchor="start" letter-spacing="1">pg.query slots</text><rect x="931.6" y="850" width="141.6" height="22" rx="5" fill="#ededed" opacity="0.55"/><text x="52" y="910" fill="#82827c" font-size="11" text-anchor="start" letter-spacing="1">redis.set</text><rect x="1262" y="894" width="82.60000000000001" height="22" rx="5" fill="#82827c" opacity="0.55"/><text x="200" y="952" fill="#d6ff3f" font-size="11" text-anchor="start" letter-spacing="1">trace_id: 8f3a…d21 → click-through to logs</text>
<g opacity="0.55">
  <rect x="1386" y="956" width="198" height="28" rx="14" fill="#191920" stroke="rgba(245,245,240,0.10)"/>
  <text x="1485" y="975" fill="#82827c" font-size="12" text-anchor="middle" letter-spacing="2">PLACEHOLDER</text>
</g>
</svg>