<svg xmlns="http://www.w3.org/2000/svg" viewBox="0 0 1600 1000" font-family="ui-monospace,Menlo,monospace">
<rect width="1600" height="1000" fill="#08080a"/>
<rect x="60" y="60" width="1480" height="880" rx="20" fill="#141418" stroke="rgba(245,245,240,0.10)"/><text x="100" y="120" fill="#82827c" font-size="14" text-anchor="start" letter-spacing="1">ORDER BOOK · BTC-USDT</text><rect x="1310" y="96" width="190" height="26" rx="13" fill="#191920" stroke="rgba(245,245,240,0.10)"/>
<text x="1405" y="113" fill="#d6ff3f" font-size="11" text-anchor="middle" letter-spacing="1">THROTTLED · 250ms</text><rect x="585.4146122559905" y="170" width="214.5853877440095" height="20" rx="3" fill="#ff5e5e" opacity="0.13"/><rect x="110" y="176" width="90" height="9" rx="5" fill="#ff5e5e"/><rect x="260" y="176" width="60" height="9" rx="5" fill="#4a4a50"/><rect x="565.2673378027976" y="196" width="234.73266219720244" height="20" rx="3" fill="#ff5e5e" opacity="0.13"/><rect x="110" y="202" width="90" height="9" rx="5" fill="#ff5e5e"/><rect x="260" y="202" width="60" height="9" rx="5" fill="#4a4a50"/><rect x="523.2581368088722" y="222" width="276.7418631911278" height="20" rx="3" fill="#ff5e5e" opacity="0.13"/><rect x="110" y="228" width="90" height="9" rx="5" fill="#ff5e5e"/><rect x="260" y="228" width="60" height="9" rx="5" fill="#4a4a50"/><rect x="677.973723243922" y="248" width="122.026276756078" height="20" rx="3" fill="#ff5e5e" opacity="0.13"/><rect x="110" y="254" width="90" height="9" rx="5" fill="#ff5e5e"/><rect x="260" y="254" width="60" height="9" rx="5" fill="#4a4a50"/><rect x="319.48452446609735" y="274" width="480.51547553390265" height="20" rx="3" fill="#ff5e5e" opacity="0.13"/><rect x="110" y="280" width="90" height="9" rx="5" fill="#ff5e5e"/><rect x="260" y="280" width="60" height="9" rx="5" fill="#4a4a50"/><rect x="245.8888659067452" y="300" width="554.1111340932548" height="20" rx="3" fill="#ff5e5e" opacity="0.13"/><rect x="110" y="306" width="90" height="9" rx="5" fill="#ff5e5e"/><rect x="260" y="306" width="60" height="9" rx="5" fill="#4a4a50"/><rect x="672.3253602534533" y="326" width="127.67463974654675" height="20" rx="3" fill="#ff5e5e" opacity="0.13"/><rect x="110" y="332" width="90" height="9" rx="5" fill="#ff5e5e"/><rect x="260" y="332" width="60" height="9" rx="5" fill="#4a4a50"/><rect x="318.07781448587775" y="352" width="481.92218551412225" height="20" rx="3" fill="#ff5e5e" opacity="0.13"/><rect x="110" y="358" width="90" height="9" rx="5" fill="#ff5e5e"/><rect x="260" y="358" width="60" height="9" rx="5" fill="#4a4a50"/><rect x="661.9590408727527" y="378" width="138.04095912724733" height="20" rx="3" fill="#ff5e5e" opacity="0.13"/><rect x="110" y="384" width="90" height="9" rx="5" fill="#ff5e5e"/><rect x="260" y="384" width="60" height="9" rx="5" fill="#4a4a50"/><rect x="600.3106538392603" y="404" width="199.68934616073966" height="20" rx="3" fill="#ff5e5e" opacity="0.13"/><rect x="110" y="410" width="90" height="9" rx="5" fill="#ff5e5e"/><rect x="260" y="410" width="60" height="9" rx="5" fill="#4a4a50"/><rect x="278.88373002409935" y="430" width="521.1162699759007" height="20" rx="3" fill="#ff5e5e" opacity="0.13"/><rect x="110" y="436" width="90" height="9" rx="5" fill="#ff5e5e"/><rect x="260" y="436" width="60" height="9" rx="5" fill="#4a4a50"/><rect x="568.5202991776168" y="456" width="231.47970082238317" height="20" rx="3" fill="#ff5e5e" opacity="0.13"/><rect x="110" y="462" width="90" height="9" rx="5" fill="#ff5e5e"/><rect x="260" y="462" width="60" height="9" rx="5" fill="#4a4a50"/><rect x="518.7905578687787" y="482" width="281.2094421312213" height="20" rx="3" fill="#ff5e5e" opacity="0.13"/><rect x="110" y="488" width="90" height="9" rx="5" fill="#ff5e5e"/><rect x="260" y="488" width="60" height="9" rx="5" fill="#4a4a50"/><rect x="521.1384640820324" y="508" width="278.86153591796756" height="20" rx="3" fill="#ff5e5e" opacity="0.13"/><rect x="110" y="514" width="90" height="9" rx="5" fill="#ff5e5e"/><rect x="260" y="514" width="60" height="9" rx="5" fill="#4a4a50"/><rect x="800" y="170" width="370.2719197422266" height="20" rx="3" fill="#3fd68b" opacity="0.13"/><rect x="1400" y="176" width="90" height="9" rx="5" fill="#3fd68b"/><rect x="1280" y="176" width="60" height="9" rx="5" fill="#4a4a50"/><rect x="800" y="196" width="439.4069945253432" height="20" rx="3" fill="#3fd68b" opacity="0.13"/><rect x="1400" y="202" width="90" height="9" rx="5" fill="#3fd68b"/><rect x="1280" y="202" width="60" height="9" rx="5" fill="#4a4a50"/><rect x="800" y="222" width="299.760361649096" height="20" rx="3" fill="#3fd68b" opacity="0.13"/><rect x="1400" y="228" width="90" height="9" rx="5" fill="#3fd68b"/><rect x="1280" y="228" width="60" height="9" rx="5" fill="#4a4a50"/><rect x="800" y="248" width="348.1720263324678" height="20" rx="3" fill="#3fd68b" opacity="0.13"/><rect x="1400" y="254" width="90" height="9" rx="5" fill="#3fd68b"/><rect x="1280" y="254" width="60" height="9" rx="5" fill="#4a4a50"/><rect x="800" y="274" width="454.32911574840546" height="20" rx="3" fill="#3fd68b" opacity="0.13"/><rect x="1400" y="280" width="90" height="9" rx="5" fill="#3fd68b"/><rect x="1280" y="280" width="60" height="9" rx="5" fill="#4a4a50"/><rect x="800" y="300" width="303.58917938545346" height="20" rx="3" fill="#3fd68b" opacity="0.13"/><rect x="1400" y="306" width="90" height="9" rx="5" fill="#3fd68b"/><rect x="1280" y="306" width="60" height="9" rx="5" fill="#4a4a50"/><rect x="800" y="326" width="151.01463671773672" height="20" rx="3" fill="#3fd68b" opacity="0.13"/><rect x="1400" y="332" width="90" height="9" rx="5" fill="#3fd68b"/><rect x="1280" y="332" width="60" height="9" rx="5" fill="#4a4a50"/><rect x="800" y="352" width="490.3806555084884" height="20" rx="3" fill="#3fd68b" opacity="0.13"/><rect x="1400" y="358" width="90" height="9" rx="5" fill="#3fd68b"/><rect x="1280" y="358" width="60" height="9" rx="5" fill="#4a4a50"/><rect x="800" y="378" width="512.8083314746618" height="20" rx="3" fill="#3fd68b" opacity="0.13"/><rect x="1400" y="384" width="90" height="9" rx="5" fill="#3fd68b"/><rect x="1280" y="384" width="60" height="9" rx="5" fill="#4a4a50"/><rect x="800" y="404" width="100.14592627063394" height="20" rx="3" fill="#3fd68b" opacity="0.13"/><rect x="1400" y="410" width="90" height="9" rx="5" fill="#3fd68b"/><rect x="1280" y="410" width="60" height="9" rx="5" fill="#4a4a50"/><rect x="800" y="430" width="250.1236917451024" height="20" rx="3" fill="#3fd68b" opacity="0.13"/><rect x="1400" y="436" width="90" height="9" rx="5" fill="#3fd68b"/><rect x="1280" y="436" width="60" height="9" rx="5" fill="#4a4a50"/><rect x="800" y="456" width="150.20008137449622" height="20" rx="3" fill="#3fd68b" opacity="0.13"/><rect x="1400" y="462" width="90" height="9" rx="5" fill="#3fd68b"/><rect x="1280" y="462" width="60" height="9" rx="5" fill="#4a4a50"/><rect x="800" y="482" width="402.6479481160641" height="20" rx="3" fill="#3fd68b" opacity="0.13"/><rect x="1400" y="488" width="90" height="9" rx="5" fill="#3fd68b"/><rect x="1280" y="488" width="60" height="9" rx="5" fill="#4a4a50"/><rect x="800" y="508" width="108.03595634177327" height="20" rx="3" fill="#3fd68b" opacity="0.13"/><rect x="1400" y="514" width="90" height="9" rx="5" fill="#3fd68b"/><rect x="1280" y="514" width="60" height="9" rx="5" fill="#4a4a50"/><line x1="800" y1="160" x2="800" y2="534" stroke="rgba(245,245,240,0.2)" stroke-dasharray="4 6"/><text x="100" y="600" fill="#82827c" font-size="12" text-anchor="start" letter-spacing="1">DEPTH</text><path d="M110,860L110,824.7732935955748L132.33333333333334,819.0812890204974L154.66666666666666,814.111779524777L177,809.6242370341346L199.33333333333331,803.6658215844631L221.66666666666666,803.3752785059623L244,801.1433582866006L266.3333333333333,796.366046403572L288.66666666666663,796.1697695160285L311,794.8493524598516L333.3333333333333,789.5547410400397L355.66666666666663,788.4670000163093L378,786.7252963153273L400.3333333333333,781.3582404821179L422.66666666666663,776.7332890493236L445,770.95543835029L467.3333333333333,766.4864507542178L489.66666666666663,765.5339198686369L512,762.687419563178L534.3333333333333,759.0322968694195L556.6666666666666,755.5162898595631L579,752.9740299178474L601.3333333333333,751.4103668011539L623.6666666666666,747.6068738458306L646,744.8012356026843L668.3333333333333,744.5103838936426L690.6666666666666,739.8352124712058L713,738.9891020883992L735.3333333333333,738.7699823700636L757.6666666666666,734.5066411445104L780,732.0389983185195L780,860Z" fill="#3fd68b" opacity="0.15"/><path d="M110,860L110,824.7732935955748L132.33333333333334,819.0812890204974L154.66666666666666,814.111779524777L177,809.6242370341346L199.33333333333331,803.6658215844631L221.66666666666666,803.3752785059623L244,801.1433582866006L266.3333333333333,796.366046403572L288.66666666666663,796.1697695160285L311,794.8493524598516L333.3333333333333,789.5547410400397L355.66666666666663,788.4670000163093L378,786.7252963153273L400.3333333333333,781.3582404821179L422.66666666666663,776.7332890493236L445,770.95543835029L467.3333333333333,766.4864507542178L489.66666666666663,765.5339198686369L512,762.687419563178L534.3333333333333,759.0322968694195L556.6666666666666,755.5162898595631L579,752.9740299178474L601.3333333333333,751.4103668011539L623.6666666666666,747.6068738458306L646,744.8012356026843L668.3333333333333,744.5103838936426L690.6666666666666,739.8352124712058L713,738.9891020883992L735.3333333333333,738.7699823700636L757.6666666666666,734.5066411445104L780,732.0389983185195" stroke="#3fd68b" fill="none" stroke-width="2"/><path d="M1490,860L1490,823.410888758991L1467.6666666666667,821.6882693967782L1445.3333333333333,815.5602035604045L1423,814.6797348870709L1400.6666666666667,813.6670756875537L1378.3333333333333,813.4188205737807L1356,810.241388778463L1333.6666666666667,808.5281089050322L1311.3333333333333,806.5326079082676L1289,802.0217893512361L1266.6666666666667,798.8689678597823L1244.3333333333333,797.6217270162329L1222,794.2824392871372L1199.6666666666667,793.0809876083024L1177.3333333333335,789.2710963076353L1155,786.8996747280657L1132.6666666666667,785.9807629632392L1110.3333333333335,785.5612362115644L1088,781.260726149343L1065.6666666666667,775.2152282980456L1043.3333333333335,775.0501190147363L1021,773.4661396732367L998.6666666666667,771.1985514929146L976.3333333333334,766.2885219701379L954,764.1829435311445L931.6666666666667,762.2175990906171L909.3333333333334,756.2085517399386L887,752.812984742336L864.6666666666667,748.4821215918473L842.3333333333334,743.2823758667894L820,743.0751949547231L820,860Z" fill="#ff5e5e" opacity="0.15"/><path d="M1490,860L1490,823.410888758991L1467.6666666666667,821.6882693967782L1445.3333333333333,815.5602035604045L1423,814.6797348870709L1400.6666666666667,813.6670756875537L1378.3333333333333,813.4188205737807L1356,810.241388778463L1333.6666666666667,808.5281089050322L1311.3333333333333,806.5326079082676L1289,802.0217893512361L1266.6666666666667,798.8689678597823L1244.3333333333333,797.6217270162329L1222,794.2824392871372L1199.6666666666667,793.0809876083024L1177.3333333333335,789.2710963076353L1155,786.8996747280657L1132.6666666666667,785.9807629632392L1110.3333333333335,785.5612362115644L1088,781.260726149343L1065.6666666666667,775.2152282980456L1043.3333333333335,775.0501190147363L1021,773.4661396732367L998.6666666666667,771.1985514929146L976.3333333333334,766.2885219701379L954,764.1829435311445L931.6666666666667,762.2175990906171L909.3333333333334,756.2085517399386L887,752.812984742336L864.6666666666667,748.4821215918473L842.3333333333334,743.2823758667894L820,743.0751949547231" stroke="#ff5e5e" fill="none" stroke-width="2"/>
<g opacity="0.55">
  <rect x="1386" y="956" width="198" height="28" rx="14" fill="#191920" stroke="rgba(245,245,240,0.10)"/>
  <text x="1485" y="975" fill="#82827c" font-size="12" text-anchor="middle" letter-spacing="2">PLACEHOLDER</text>
</g>
</svg>