<svg xmlns="http://www.w3.org/2000/svg" viewBox="0 0 1600 1000" font-family="ui-monospace,Menlo,monospace">
<rect width="1600" height="1000" fill="#08080a"/>
<rect width="1600" height="52" fill="#0e0e11"/>
<circle cx="28" cy="26" r="6" fill="#3a3a40"/><circle cx="50" cy="26" r="6" fill="#3a3a40"/><circle cx="72" cy="26" r="6" fill="#3a3a40"/>
<rect x="440" y="12" width="720" height="28" rx="14" fill="#141418" stroke="rgba(245,245,240,0.10)"/>
<text x="800" y="30" fill="#82827c" font-size="12" text-anchor="middle" letter-spacing="1">rcoinx.exchange/trade/BTC-USDT</text>
<line x1="0" y1="52" x2="1600" y2="52" stroke="rgba(245,245,240,0.10)"/><rect x="24" y="72" width="1552" height="64" rx="14" fill="#141418" stroke="rgba(245,245,240,0.10)"/><text x="48" y="110" fill="#ededed" font-size="18" text-anchor="start" letter-spacing="1">BTC / USDT</text><text x="210" y="110" fill="#3fd68b" font-size="18" text-anchor="start" letter-spacing="1">67,431.50</text><text x="420" y="98" fill="#82827c" font-size="11" text-anchor="start" letter-spacing="1">24h High</text><rect x="420" y="106" width="90" height="10" rx="5" fill="#57575e"/><text x="600" y="98" fill="#82827c" font-size="11" text-anchor="start" letter-spacing="1">24h Low</text><rect x="600" y="106" width="90" height="10" rx="5" fill="#57575e"/><text x="780" y="98" fill="#82827c" font-size="11" text-anchor="start" letter-spacing="1">24h Vol</text><rect x="780" y="106" width="90" height="10" rx="5" fill="#57575e"/><text x="960" y="98" fill="#82827c" font-size="11" text-anchor="start" letter-spacing="1">Funding</text><rect x="960" y="106" width="90" height="10" rx="5" fill="#57575e"/><rect x="1380" y="91" width="172" height="26" rx="13" fill="#191920" stroke="rgba(245,245,240,0.10)"/>
<text x="1466" y="108" fill="#d6ff3f" font-size="11" text-anchor="middle" letter-spacing="1">3 WS STREAMS LIVE</text><rect x="24" y="152" width="1010" height="560" rx="14" fill="#141418" stroke="rgba(245,245,240,0.10)"/><text x="48" y="186" fill="#82827c" font-size="12" text-anchor="start" letter-spacing="1">BTCUSDT · 15m</text><line x1="40" y1="240" x2="1018" y2="240" stroke="rgba(245,245,240,0.10)"/><line x1="40" y1="340" x2="1018" y2="340" stroke="rgba(245,245,240,0.10)"/><line x1="40" y1="440" x2="1018" y2="440" stroke="rgba(245,245,240,0.10)"/><line x1="40" y1="540" x2="1018" y2="540" stroke="rgba(245,245,240,0.10)"/><line x1="40" y1="640" x2="1018" y2="640" stroke="rgba(245,245,240,0.10)"/><line x1="56.57142857142857" y1="418.14937404636294" x2="56.57142857142857" y2="445.5090088855717" stroke="#ff5e5e" stroke-width="1.4" opacity="0.8"/>
<rect x="51.77142857142857" y="420" width="9.600000000000001" height="13.386103722710152" rx="1" fill="#ff5e5e" opacity="0.9"/>
<line x1="73.71428571428571" y1="425.49723958338234" x2="73.71428571428571" y2="449.062854884427" stroke="#ff5e5e" stroke-width="1.4" opacity="0.8"/>
<rect x="68.91428571428571" y="433.3861037227101" width="9.600000000000001" height="15.13780915995688" rx="1" fill="#ff5e5e" opacity="0.9"/>
<line x1="90.85714285714285" y1="446.03625280386956" x2="90.85714285714285" y2="468.7978610932622" stroke="#ff5e5e" stroke-width="1.4" opacity="0.8"/>
<rect x="86.05714285714285" y="448.523912882667" width="9.600000000000001" height="2" rx="1" fill="#ff5e5e" opacity="0.9"/>
<line x1="108" y1="402.2700206864197" x2="108" y2="460.94098456374184" stroke="#3fd68b" stroke-width="1.4" opacity="0.8"/>
<rect x="103.2" y="420.1872778833881" width="9.600000000000001" height="30.260495389088995" rx="1" fill="#3fd68b" opacity="0.9"/>
<line x1="125.14285714285714" y1="392.57104229589925" x2="125.14285714285714" y2="432.7131431893017" stroke="#3fd68b" stroke-width="1.4" opacity="0.8"/>
<rect x="120.34285714285714" y="410.6616222321801" width="9.600000000000001" height="9.525655651208005" rx="1" fill="#3fd68b" opacity="0.9"/>
<line x1="142.2857142857143" y1="407.71721647412517" x2="142.2857142857143" y2="453.50136684082076" stroke="#ff5e5e" stroke-width="1.4" opacity="0.8"/>
<rect x="137.4857142857143" y="410.6616222321801" width="9.600000000000001" height="22.887890801556406" rx="1" fill="#ff5e5e" opacity="0.9"/>
<line x1="159.42857142857144" y1="388.73080473964285" x2="159.42857142857144" y2="445.110188802151" stroke="#3fd68b" stroke-width="1.4" opacity="0.8"/>
<rect x="154.62857142857143" y="407.4096528213769" width="9.600000000000001" height="26.139860212359594" rx="1" fill="#3fd68b" opacity="0.9"/>
<line x1="176.57142857142858" y1="395.85785787634734" x2="176.57142857142858" y2="430.45758228107167" stroke="#ff5e5e" stroke-width="1.4" opacity="0.8"/>
<rect x="171.77142857142857" y="407.4096528213769" width="9.600000000000001" height="17.609626731812952" rx="1" fill="#ff5e5e" opacity="0.9"/>
<line x1="193.71428571428572" y1="380.5362052063308" x2="193.71428571428572" y2="428.28045163523217" stroke="#3fd68b" stroke-width="1.4" opacity="0.8"/>
<rect x="188.9142857142857" y="397.78772579253086" width="9.600000000000001" height="27.231553760658972" rx="1" fill="#3fd68b" opacity="0.9"/>
<line x1="210.85714285714286" y1="367.4379487140197" x2="210.85714285714286" y2="399.0625282221324" stroke="#3fd68b" stroke-width="1.4" opacity="0.8"/>
<rect x="206.05714285714285" y="377.24331680243824" width="9.600000000000001" height="20.544408990092595" rx="1" fill="#3fd68b" opacity="0.9"/>
<line x1="228" y1="365.96025258187194" x2="228" y2="421.5761144971344" stroke="#ff5e5e" stroke-width="1.4" opacity="0.8"/>
<rect x="223.2" y="377.24331680243824" width="9.600000000000001" height="26.903632140230396" rx="1" fill="#ff5e5e" opacity="0.9"/>
<line x1="245.14285714285714" y1="368.3661409670132" x2="245.14285714285714" y2="412.1428687043823" stroke="#3fd68b" stroke-width="1.4" opacity="0.8"/>
<rect x="240.34285714285713" y="382.6654203641339" width="9.600000000000001" height="21.481528578534746" rx="1" fill="#3fd68b" opacity="0.9"/>
<line x1="262.2857142857143" y1="361.8284575978181" x2="262.2857142857143" y2="397.60409363942404" stroke="#3fd68b" stroke-width="1.4" opacity="0.8"/>
<rect x="257.48571428571427" y="376.4527978638074" width="9.600000000000001" height="6.212622500326508" rx="1" fill="#3fd68b" opacity="0.9"/>
<line x1="279.42857142857144" y1="341.62601855109807" x2="279.42857142857144" y2="385.8976077038682" stroke="#3fd68b" stroke-width="1.4" opacity="0.8"/>
<rect x="274.62857142857143" y="362.4220549503005" width="9.600000000000001" height="14.030742913506927" rx="1" fill="#3fd68b" opacity="0.9"/>
<line x1="296.57142857142856" y1="358.39857832031686" x2="296.57142857142856" y2="394.282933053458" stroke="#ff5e5e" stroke-width="1.4" opacity="0.8"/>
<rect x="291.77142857142854" y="362.4220549503005" width="9.600000000000001" height="22.46592716544493" rx="1" fill="#ff5e5e" opacity="0.9"/>
<line x1="313.71428571428567" y1="368.7439196891057" x2="313.71428571428567" y2="418.1124464028662" stroke="#ff5e5e" stroke-width="1.4" opacity="0.8"/>
<rect x="308.91428571428565" y="384.88798211574544" width="9.600000000000001" height="20.756334376126507" rx="1" fill="#ff5e5e" opacity="0.9"/>
<line x1="330.85714285714283" y1="378.3776067756972" x2="330.85714285714283" y2="410.1754672741199" stroke="#3fd68b" stroke-width="1.4" opacity="0.8"/>
<rect x="326.0571428571428" y="386.5552457860595" width="9.600000000000001" height="19.089070705812414" rx="1" fill="#3fd68b" opacity="0.9"/>
<line x1="348" y1="386.15446605611766" x2="348" y2="404.6195580760649" stroke="#ff5e5e" stroke-width="1.4" opacity="0.8"/>
<rect x="343.2" y="386.5552457860595" width="9.600000000000001" height="12.226903386019178" rx="1" fill="#ff5e5e" opacity="0.9"/>
<line x1="365.1428571428571" y1="380.2419607603623" x2="365.1428571428571" y2="427.4422505568656" stroke="#ff5e5e" stroke-width="1.4" opacity="0.8"/>
<rect x="360.3428571428571" y="398.7821491720787" width="9.600000000000001" height="8.586661761324839" rx="1" fill="#ff5e5e" opacity="0.9"/>
<line x1="382.2857142857143" y1="389.0714893123078" x2="382.2857142857143" y2="436.49091517405566" stroke="#ff5e5e" stroke-width="1.4" opacity="0.8"/>
<rect x="377.48571428571427" y="407.36881093340355" width="9.600000000000001" height="16.893322388246645" rx="1" fill="#ff5e5e" opacity="0.9"/>
<line x1="399.4285714285714" y1="417.66125694002943" x2="399.4285714285714" y2="435.40583042460105" stroke="#ff5e5e" stroke-width="1.4" opacity="0.8"/>
<rect x="394.6285714285714" y="424.26213332165014" width="9.600000000000001" height="8.427152369800964" rx="1" fill="#ff5e5e" opacity="0.9"/>
<line x1="416.57142857142856" y1="401.12861164428466" x2="416.57142857142856" y2="452.04107311609744" stroke="#3fd68b" stroke-width="1.4" opacity="0.8"/>
<rect x="411.77142857142854" y="403.2910390000528" width="9.600000000000001" height="29.39824669139833" rx="1" fill="#3fd68b" opacity="0.9"/>
<line x1="433.71428571428567" y1="375.04573494582235" x2="433.71428571428567" y2="418.2023046659509" stroke="#3fd68b" stroke-width="1.4" opacity="0.8"/>
<rect x="428.91428571428565" y="384.137815842077" width="9.600000000000001" height="19.15322315797584" rx="1" fill="#3fd68b" opacity="0.9"/>
<line x1="450.85714285714283" y1="381.6473595638739" x2="450.85714285714283" y2="405.0238411135262" stroke="#ff5e5e" stroke-width="1.4" opacity="0.8"/>
<rect x="446.0571428571428" y="384.137815842077" width="9.600000000000001" height="10.192121901154534" rx="1" fill="#ff5e5e" opacity="0.9"/>
<line x1="468" y1="389.21581285560865" x2="468" y2="428.3383073730858" stroke="#ff5e5e" stroke-width="1.4" opacity="0.8"/>
<rect x="463.2" y="394.32993774323154" width="9.600000000000001" height="21.32237170438839" rx="1" fill="#ff5e5e" opacity="0.9"/>
<line x1="485.1428571428571" y1="392.5399532998221" x2="485.1428571428571" y2="420.05546819614233" stroke="#3fd68b" stroke-width="1.4" opacity="0.8"/>
<rect x="480.3428571428571" y="402.84423136457406" width="9.600000000000001" height="12.808078083045803" rx="1" fill="#3fd68b" opacity="0.9"/>
<line x1="502.2857142857143" y1="388.264285397507" x2="502.2857142857143" y2="436.22121834624727" stroke="#ff5e5e" stroke-width="1.4" opacity="0.8"/>
<rect x="497.48571428571427" y="402.84423136457406" width="9.600000000000001" height="14.858727298747736" rx="1" fill="#ff5e5e" opacity="0.9"/>
<line x1="519.4285714285714" y1="383.24918813759257" x2="519.4285714285714" y2="435.3319720317161" stroke="#3fd68b" stroke-width="1.4" opacity="0.8"/>
<rect x="514.6285714285715" y="397.8897418520672" width="9.600000000000001" height="19.813216811254645" rx="1" fill="#3fd68b" opacity="0.9"/>
<line x1="536.5714285714286" y1="394.67344188981485" x2="536.5714285714286" y2="405.1493667022826" stroke="#ff5e5e" stroke-width="1.4" opacity="0.8"/>
<rect x="531.7714285714286" y="397.8897418520672" width="9.600000000000001" height="4.607529280219245" rx="1" fill="#ff5e5e" opacity="0.9"/>
<line x1="553.7142857142857" y1="385.2951430631148" x2="553.7142857142857" y2="423.24150506556384" stroke="#3fd68b" stroke-width="1.4" opacity="0.8"/>
<rect x="548.9142857142857" y="398.98026031086204" width="9.600000000000001" height="3.517010821424409" rx="1" fill="#3fd68b" opacity="0.9"/>
<line x1="570.8571428571428" y1="383.29247786354256" x2="570.8571428571428" y2="411.1932072800638" stroke="#ff5e5e" stroke-width="1.4" opacity="0.8"/>
<rect x="566.0571428571428" y="398.98026031086204" width="9.600000000000001" height="3.1773950856886812" rx="1" fill="#ff5e5e" opacity="0.9"/>
<line x1="588" y1="400.53535451023447" x2="588" y2="445.044148500759" stroke="#ff5e5e" stroke-width="1.4" opacity="0.8"/>
<rect x="583.2" y="402.1576553965507" width="9.600000000000001" height="25.546270160168415" rx="1" fill="#ff5e5e" opacity="0.9"/>
<line x1="605.1428571428571" y1="381.58478903072677" x2="605.1428571428571" y2="431.24560090618377" stroke="#3fd68b" stroke-width="1.4" opacity="0.8"/>
<rect x="600.3428571428572" y="398.3785305391138" width="9.600000000000001" height="29.3253950176053" rx="1" fill="#3fd68b" opacity="0.9"/>
<line x1="622.2857142857142" y1="392.431913738379" x2="622.2857142857142" y2="414.1584148502758" stroke="#ff5e5e" stroke-width="1.4" opacity="0.8"/>
<rect x="617.4857142857143" y="398.3785305391138" width="9.600000000000001" height="5.492213832937165" rx="1" fill="#ff5e5e" opacity="0.9"/>
<line x1="639.4285714285714" y1="363.45706825392296" x2="639.4285714285714" y2="408.01992727958947" stroke="#3fd68b" stroke-width="1.4" opacity="0.8"/>
<rect x="634.6285714285715" y="382.6461998030168" width="9.600000000000001" height="21.224544569034148" rx="1" fill="#3fd68b" opacity="0.9"/>
<line x1="656.5714285714286" y1="371.5154834793971" x2="656.5714285714286" y2="397.8337261174207" stroke="#ff5e5e" stroke-width="1.4" opacity="0.8"/>
<rect x="651.7714285714286" y="382.6461998030168" width="9.600000000000001" height="9.641525789514185" rx="1" fill="#ff5e5e" opacity="0.9"/>
<line x1="673.7142857142857" y1="392.0267035891635" x2="673.7142857142857" y2="410.37217400442967" stroke="#ff5e5e" stroke-width="1.4" opacity="0.8"/>
<rect x="668.9142857142857" y="392.28772559253105" width="9.600000000000001" height="4.47686562228575" rx="1" fill="#ff5e5e" opacity="0.9"/>
<line x1="690.8571428571428" y1="386.80209837515065" x2="690.8571428571428" y2="408.7791017157843" stroke="#ff5e5e" stroke-width="1.4" opacity="0.8"/>
<rect x="686.0571428571428" y="396.76459121481673" width="9.600000000000001" height="6.66313788367064" rx="1" fill="#ff5e5e" opacity="0.9"/>
<line x1="708" y1="382.039348885942" x2="708" y2="415.03632657661825" stroke="#3fd68b" stroke-width="1.4" opacity="0.8"/>
<rect x="703.2" y="396.7546752710489" width="9.600000000000001" height="6.673053827438517" rx="1" fill="#3fd68b" opacity="0.9"/>
<line x1="725.1428571428571" y1="384.62040106569384" x2="725.1428571428571" y2="404.7311513391917" stroke="#3fd68b" stroke-width="1.4" opacity="0.8"/>
<rect x="720.3428571428572" y="389.48947844155106" width="9.600000000000001" height="7.265196829497826" rx="1" fill="#3fd68b" opacity="0.9"/>
<line x1="742.2857142857142" y1="369.8336222745848" x2="742.2857142857142" y2="398.05991747031516" stroke="#ff5e5e" stroke-width="1.4" opacity="0.8"/>
<rect x="737.4857142857143" y="389.48947844155106" width="9.600000000000001" height="3.6266920859701735" rx="1" fill="#ff5e5e" opacity="0.9"/>
<line x1="759.4285714285714" y1="347.24670601546916" x2="759.4285714285714" y2="405.11468870203544" stroke="#3fd68b" stroke-width="1.4" opacity="0.8"/>
<rect x="754.6285714285715" y="367.1955022432764" width="9.600000000000001" height="25.920668284244858" rx="1" fill="#3fd68b" opacity="0.9"/>
<line x1="776.5714285714286" y1="340.50576191960613" x2="776.5714285714286" y2="372.5548981097915" stroke="#3fd68b" stroke-width="1.4" opacity="0.8"/>
<rect x="771.7714285714286" y="341.03829246253486" width="9.600000000000001" height="26.157209780741507" rx="1" fill="#3fd68b" opacity="0.9"/>
<line x1="793.7142857142857" y1="326.90188688802874" x2="793.7142857142857" y2="361.03545178479294" stroke="#3fd68b" stroke-width="1.4" opacity="0.8"/>
<rect x="788.9142857142857" y="337.4483046587032" width="9.600000000000001" height="3.5899878038316957" rx="1" fill="#3fd68b" opacity="0.9"/>
<line x1="810.8571428571428" y1="293.1930520745177" x2="810.8571428571428" y2="354.58625604276887" stroke="#3fd68b" stroke-width="1.4" opacity="0.8"/>
<rect x="806.0571428571428" y="308.0530392663736" width="9.600000000000001" height="29.395265392329538" rx="1" fill="#3fd68b" opacity="0.9"/>
<line x1="828" y1="296.20832835079136" x2="828" y2="332.51325608603247" stroke="#ff5e5e" stroke-width="1.4" opacity="0.8"/>
<rect x="823.2" y="308.0530392663736" width="9.600000000000001" height="10.066029837705177" rx="1" fill="#ff5e5e" opacity="0.9"/>
<line x1="845.1428571428571" y1="310.99462838237696" x2="845.1428571428571" y2="353.0708084100128" stroke="#ff5e5e" stroke-width="1.4" opacity="0.8"/>
<rect x="840.3428571428572" y="318.1190691040788" width="9.600000000000001" height="25.30202113657818" rx="1" fill="#ff5e5e" opacity="0.9"/>
<line x1="862.2857142857142" y1="306.16495161922427" x2="862.2857142857142" y2="344.22503739182986" stroke="#3fd68b" stroke-width="1.4" opacity="0.8"/>
<rect x="857.4857142857143" y="326.5839221042093" width="9.600000000000001" height="16.837168136447684" rx="1" fill="#3fd68b" opacity="0.9"/>
<line x1="879.4285714285714" y1="314.5901437358219" x2="879.4285714285714" y2="340.1305976239942" stroke="#3fd68b" stroke-width="1.4" opacity="0.8"/>
<rect x="874.6285714285715" y="320.9580682724003" width="9.600000000000001" height="5.625853831809035" rx="1" fill="#3fd68b" opacity="0.9"/>
<line x1="896.5714285714286" y1="300.0832404282406" x2="896.5714285714286" y2="326.3085341326181" stroke="#3fd68b" stroke-width="1.4" opacity="0.8"/>
<rect x="891.7714285714286" y="309.90647552115803" width="9.600000000000001" height="11.051592751242225" rx="1" fill="#3fd68b" opacity="0.9"/>
<line x1="913.7142857142857" y1="285.10140894751584" x2="913.7142857142857" y2="310.62611191975844" stroke="#3fd68b" stroke-width="1.4" opacity="0.8"/>
<rect x="908.9142857142857" y="295.7289373788755" width="9.600000000000001" height="14.177538142282513" rx="1" fill="#3fd68b" opacity="0.9"/>
<line x1="930.8571428571428" y1="258.9383446536973" x2="930.8571428571428" y2="314.7152322998974" stroke="#3fd68b" stroke-width="1.4" opacity="0.8"/>
<rect x="926.0571428571428" y="274.298275582261" width="9.600000000000001" height="21.430661796614547" rx="1" fill="#3fd68b" opacity="0.9"/>
<line x1="948" y1="247.81651131960336" x2="948" y2="295.22465679096206" stroke="#3fd68b" stroke-width="1.4" opacity="0.8"/>
<rect x="943.2" y="259.09191960061673" width="9.600000000000001" height="15.206355981644233" rx="1" fill="#3fd68b" opacity="0.9"/>
<line x1="965.1428571428571" y1="217.95887984591536" x2="965.1428571428571" y2="275.57382476201985" stroke="#3fd68b" stroke-width="1.4" opacity="0.8"/>
<rect x="960.3428571428572" y="231" width="9.600000000000001" height="28.091919600616734" rx="1" fill="#3fd68b" opacity="0.9"/>
<line x1="982.2857142857142" y1="219.5843042456545" x2="982.2857142857142" y2="268.9475359033104" stroke="#ff5e5e" stroke-width="1.4" opacity="0.8"/>
<rect x="977.4857142857143" y="231" width="9.600000000000001" height="25.014606519486737" rx="1" fill="#ff5e5e" opacity="0.9"/>
<line x1="999.4285714285713" y1="240.3226910793465" x2="999.4285714285713" y2="270.0719313036204" stroke="#ff5e5e" stroke-width="1.4" opacity="0.8"/>
<rect x="994.6285714285714" y="256.01460651948673" width="9.600000000000001" height="13.551897834777844" rx="1" fill="#ff5e5e" opacity="0.9"/><rect x="49" y="676.3038080021739" width="14.142857142857142" height="17.6961919978261" rx="2" fill="#82827c" opacity="0.3394144052872434"/>
<rect x="66.14285714285714" y="675.977970635891" width="14.142857142857142" height="18.02202936410904" rx="2" fill="#82827c" opacity="0.3797853159485385"/>
<rect x="83.28571428571428" y="683.7171487882733" width="14.142857142857142" height="10.282851211726665" rx="2" fill="#82827c" opacity="0.63668738596607"/>
<rect x="100.42857142857143" y="654.2831952005624" width="14.142857142857142" height="39.716804799437526" rx="2" fill="#82827c" opacity="0.26730648276861757"/>
<rect x="117.57142857142857" y="671.7349848613143" width="14.142857142857142" height="22.265015138685705" rx="2" fill="#82827c" opacity="0.27604138443712145"/>
<rect x="134.71428571428572" y="674.3961213052273" width="14.142857142857142" height="19.60387869477272" rx="2" fill="#82827c" opacity="0.3422444489551708"/>
<rect x="151.85714285714286" y="663.4160511150956" width="14.142857142857142" height="30.583948884904387" rx="2" fill="#82827c" opacity="0.6566369050415233"/>
<rect x="169" y="656.1671647518873" width="14.142857142857142" height="37.83283524811269" rx="2" fill="#82827c" opacity="0.5284226903459057"/>
<rect x="186.14285714285714" y="674.8735868379474" width="14.142857142857142" height="19.126413162052632" rx="2" fill="#82827c" opacity="0.7326442940393463"/>
<rect x="203.28571428571428" y="677.3454840183258" width="14.142857142857142" height="16.654515981674194" rx="2" fill="#82827c" opacity="0.6381248420802876"/>
<rect x="220.42857142857142" y="676.6958435252309" width="14.142857142857142" height="17.304156474769115" rx="2" fill="#82827c" opacity="0.6216726946877316"/>
<rect x="237.57142857142856" y="677.4448005706072" width="14.142857142857142" height="16.555199429392815" rx="2" fill="#82827c" opacity="0.4153381068026647"/>
<rect x="254.71428571428572" y="683.0697176918387" width="14.142857142857142" height="10.93028230816126" rx="2" fill="#82827c" opacity="0.38165603356901556"/>
<rect x="271.8571428571429" y="658.6373441755771" width="14.142857142857142" height="35.362655824422845" rx="2" fill="#82827c" opacity="0.5482349441153929"/>
<rect x="289" y="675.4575086846947" width="14.142857142857142" height="18.542491315305234" rx="2" fill="#82827c" opacity="0.589008538168855"/>
<rect x="306.1428571428571" y="663.7259232133626" width="14.142857142857142" height="30.27407678663731" rx="2" fill="#82827c" opacity="0.5962055412819609"/>
<rect x="323.2857142857143" y="657.2768014952541" width="14.142857142857142" height="36.723198504745966" rx="2" fill="#82827c" opacity="0.47586228570435196"/>
<rect x="340.42857142857144" y="682.444119989872" width="14.142857142857142" height="11.555880010128021" rx="2" fill="#82827c" opacity="0.4017535651801154"/>
<rect x="357.57142857142856" y="669.6334745720029" width="14.142857142857142" height="24.366525427997118" rx="2" fill="#82827c" opacity="0.5091992832021788"/>
<rect x="374.7142857142857" y="663.7346110492945" width="14.142857142857142" height="30.26538895070553" rx="2" fill="#82827c" opacity="0.6825676955049857"/>
<rect x="391.85714285714283" y="659.7578326329589" width="14.142857142857142" height="34.24216736704112" rx="2" fill="#82827c" opacity="0.41969057882670313"/>
<rect x="409" y="662.0556124866009" width="14.142857142857142" height="31.94438751339912" rx="2" fill="#82827c" opacity="0.6240814392222092"/>
<rect x="426.1428571428571" y="683.3938644781708" width="14.142857142857142" height="10.60613552182913" rx="2" fill="#82827c" opacity="0.313054904458113"/>
<rect x="443.2857142857143" y="679.3654502600432" width="14.142857142857142" height="14.634549739956856" rx="2" fill="#82827c" opacity="0.41783372627105564"/>
<rect x="460.42857142857144" y="681.5916258022189" width="14.142857142857142" height="12.408374197781086" rx="2" fill="#82827c" opacity="0.6217493495205417"/>
<rect x="477.57142857142856" y="670.8352555036545" width="14.142857142857142" height="23.16474449634552" rx="2" fill="#82827c" opacity="0.31594278651755303"/>
<rect x="494.7142857142857" y="682.7527470067143" width="14.142857142857142" height="11.247252993285656" rx="2" fill="#82827c" opacity="0.2798045660601929"/>
<rect x="511.85714285714283" y="680.7397848397493" width="14.142857142857142" height="13.260215160250667" rx="2" fill="#82827c" opacity="0.397005807957612"/>
<rect x="529" y="652.7790660127997" width="14.142857142857142" height="41.22093398720027" rx="2" fill="#82827c" opacity="0.6286170050734654"/>
<rect x="546.1428571428571" y="678.9763656914234" width="14.142857142857142" height="15.023634308576582" rx="2" fill="#82827c" opacity="0.36373687617015094"/>
<rect x="563.2857142857142" y="650.574386073649" width="14.142857142857142" height="43.425613926351076" rx="2" fill="#82827c" opacity="0.6865106840850785"/>
<rect x="580.4285714285714" y="680.6619665950536" width="14.142857142857142" height="13.33803340494633" rx="2" fill="#82827c" opacity="0.3176556950202212"/>
<rect x="597.5714285714286" y="670.149358586967" width="14.142857142857142" height="23.85064141303301" rx="2" fill="#82827c" opacity="0.5398809859761968"/>
<rect x="614.7142857142857" y="666.4583925127984" width="14.142857142857142" height="27.541607487201688" rx="2" fill="#82827c" opacity="0.5811395886121318"/>
<rect x="631.8571428571429" y="668.1794909074903" width="14.142857142857142" height="25.820509092509752" rx="2" fill="#82827c" opacity="0.7387329890625551"/>
<rect x="649" y="657.2756051450967" width="14.142857142857142" height="36.724394854903224" rx="2" fill="#82827c" opacity="0.26215128449257463"/>
<rect x="666.1428571428571" y="668.6662791594863" width="14.142857142857142" height="25.333720840513706" rx="2" fill="#82827c" opacity="0.7044268284225836"/>
<rect x="683.2857142857142" y="654.6031682431698" width="14.142857142857142" height="39.396831756830224" rx="2" fill="#82827c" opacity="0.38195497810374945"/>
<rect x="700.4285714285714" y="651.5514660492539" width="14.142857142857142" height="42.44853395074607" rx="2" fill="#82827c" opacity="0.28244258847553283"/>
<rect x="717.5714285714286" y="676.9198179215193" width="14.142857142857142" height="17.08018207848072" rx="2" fill="#82827c" opacity="0.5111331784864888"/>
<rect x="734.7142857142857" y="662.5344236776233" width="14.142857142857142" height="31.465576322376734" rx="2" fill="#82827c" opacity="0.6979772268095985"/>
<rect x="751.8571428571429" y="656.2311579704285" width="14.142857142857142" height="37.76884202957153" rx="2" fill="#82827c" opacity="0.4842168352333829"/>
<rect x="769" y="657.3426613524556" width="14.142857142857142" height="36.65733864754439" rx="2" fill="#82827c" opacity="0.2971860292600468"/>
<rect x="786.1428571428571" y="653.9854801684618" width="14.142857142857142" height="40.01451983153821" rx="2" fill="#82827c" opacity="0.38824124669190496"/>
<rect x="803.2857142857142" y="676.1054584011436" width="14.142857142857142" height="17.89454159885645" rx="2" fill="#82827c" opacity="0.5818810962373391"/>
<rect x="820.4285714285714" y="650.017709594965" width="14.142857142857142" height="43.982290405035016" rx="2" fill="#82827c" opacity="0.645540249417536"/>
<rect x="837.5714285714286" y="667.480621983111" width="14.142857142857142" height="26.519378016889092" rx="2" fill="#82827c" opacity="0.6704993603052571"/>
<rect x="854.7142857142857" y="662.971474942565" width="14.142857142857142" height="31.028525057435033" rx="2" fill="#82827c" opacity="0.6360911888768896"/>
<rect x="871.8571428571429" y="681.3843699023128" width="14.142857142857142" height="12.615630097687244" rx="2" fill="#82827c" opacity="0.443152635009028"/>
<rect x="889" y="684.64930382967" width="14.142857142857142" height="9.350696170330048" rx="2" fill="#82827c" opacity="0.4297231714008376"/>
<rect x="906.1428571428571" y="661.9743384197354" width="14.142857142857142" height="32.02566158026457" rx="2" fill="#82827c" opacity="0.25357219495344907"/>
<rect x="923.2857142857142" y="676.3409431129694" width="14.142857142857142" height="17.6590568870306" rx="2" fill="#82827c" opacity="0.3235010973876342"/>
<rect x="940.4285714285714" y="682.9357150658965" width="14.142857142857142" height="11.06428493410349" rx="2" fill="#82827c" opacity="0.715760387131013"/>
<rect x="957.5714285714286" y="655.179804199934" width="14.142857142857142" height="38.820195800066" rx="2" fill="#82827c" opacity="0.5045979757560417"/>
<rect x="974.7142857142857" y="663.1204964533448" width="14.142857142857142" height="30.879503546655183" rx="2" fill="#82827c" opacity="0.6981617735000327"/>
<rect x="991.8571428571428" y="678.5775333613158" width="14.142857142857142" height="15.422466638684273" rx="2" fill="#82827c" opacity="0.2839680196484551"/><rect x="1050" y="152" width="250" height="560" rx="14" fill="#141418" stroke="rgba(245,245,240,0.10)"/><text x="1070" y="186" fill="#82827c" font-size="11" text-anchor="start" letter-spacing="1">ORDER BOOK</text><rect x="1199.4072572281584" y="205" width="80.59274277184159" height="15" rx="2" fill="#ff5e5e" opacity="0.14"/><rect x="1070" y="208" width="60" height="8" rx="5" fill="#ff5e5e"/><rect x="1160" y="208" width="46" height="8" rx="5" fill="#4a4a50"/><rect x="1084.7061450011097" y="226" width="195.2938549988903" height="15" rx="2" fill="#ff5e5e" opacity="0.14"/><rect x="1070" y="229" width="60" height="8" rx="5" fill="#ff5e5e"/><rect x="1160" y="229" width="46" height="8" rx="5" fill="#4a4a50"/><rect x="1135.8764167223126" y="247" width="144.12358327768743" height="15" rx="2" fill="#ff5e5e" opacity="0.14"/><rect x="1070" y="250" width="60" height="8" rx="5" fill="#ff5e5e"/><rect x="1160" y="250" width="46" height="8" rx="5" fill="#4a4a50"/><rect x="1082.4131519463845" y="268" width="197.58684805361554" height="15" rx="2" fill="#ff5e5e" opacity="0.14"/><rect x="1070" y="271" width="60" height="8" rx="5" fill="#ff5e5e"/><rect x="1160" y="271" width="46" height="8" rx="5" fill="#4a4a50"/><rect x="1231.6120002092794" y="289" width="48.38799979072064" height="15" rx="2" fill="#ff5e5e" opacity="0.14"/><rect x="1070" y="292" width="60" height="8" rx="5" fill="#ff5e5e"/><rect x="1160" y="292" width="46" height="8" rx="5" fill="#4a4a50"/><rect x="1094.5167953404598" y="310" width="185.4832046595402" height="15" rx="2" fill="#ff5e5e" opacity="0.14"/><rect x="1070" y="313" width="60" height="8" rx="5" fill="#ff5e5e"/><rect x="1160" y="313" width="46" height="8" rx="5" fill="#4a4a50"/><rect x="1178.6325234547257" y="331" width="101.36747654527426" height="15" rx="2" fill="#ff5e5e" opacity="0.14"/><rect x="1070" y="334" width="60" height="8" rx="5" fill="#ff5e5e"/><rect x="1160" y="334" width="46" height="8" rx="5" fill="#4a4a50"/><rect x="1230.9719219827093" y="352" width="49.02807801729068" height="15" rx="2" fill="#ff5e5e" opacity="0.14"/><rect x="1070" y="355" width="60" height="8" rx="5" fill="#ff5e5e"/><rect x="1160" y="355" width="46" height="8" rx="5" fill="#4a4a50"/><rect x="1228.3067138446495" y="373" width="51.693286155350506" height="15" rx="2" fill="#ff5e5e" opacity="0.14"/><rect x="1070" y="376" width="60" height="8" rx="5" fill="#ff5e5e"/><rect x="1160" y="376" width="46" height="8" rx="5" fill="#4a4a50"/><rect x="1072.7307098149322" y="394" width="207.2692901850678" height="15" rx="2" fill="#ff5e5e" opacity="0.14"/><rect x="1070" y="397" width="60" height="8" rx="5" fill="#ff5e5e"/><rect x="1160" y="397" width="46" height="8" rx="5" fill="#4a4a50"/><rect x="1074.6231446322054" y="415" width="205.37685536779463" height="15" rx="2" fill="#ff5e5e" opacity="0.14"/><rect x="1070" y="418" width="60" height="8" rx="5" fill="#ff5e5e"/><rect x="1160" y="418" width="46" height="8" rx="5" fill="#4a4a50"/><text x="1070" y="452" fill="#3fd68b" font-size="15" text-anchor="start" letter-spacing="1">67,431.50 ↑</text><rect x="1149.6873662550934" y="470" width="130.31263374490663" height="15" rx="2" fill="#3fd68b" opacity="0.14"/><rect x="1070" y="473" width="60" height="8" rx="5" fill="#3fd68b"/><rect x="1160" y="473" width="46" height="8" rx="5" fill="#4a4a50"/><rect x="1163.1842039013281" y="491" width="116.81579609867185" height="15" rx="2" fill="#3fd68b" opacity="0.14"/><rect x="1070" y="494" width="60" height="8" rx="5" fill="#3fd68b"/><rect x="1160" y="494" width="46" height="8" rx="5" fill="#4a4a50"/><rect x="1146.8673028494231" y="512" width="133.13269715057686" height="15" rx="2" fill="#3fd68b" opacity="0.14"/><rect x="1070" y="515" width="60" height="8" rx="5" fill="#3fd68b"/><rect x="1160" y="515" width="46" height="8" rx="5" fill="#4a4a50"/><rect x="1137.1438806690276" y="533" width="142.85611933097243" height="15" rx="2" fill="#3fd68b" opacity="0.14"/><rect x="1070" y="536" width="60" height="8" rx="5" fill="#3fd68b"/><rect x="1160" y="536" width="46" height="8" rx="5" fill="#4a4a50"/><rect x="1107.8390577272512" y="554" width="172.1609422727488" height="15" rx="2" fill="#3fd68b" opacity="0.14"/><rect x="1070" y="557" width="60" height="8" rx="5" fill="#3fd68b"/><rect x="1160" y="557" width="46" height="8" rx="5" fill="#4a4a50"/><rect x="1107.43189742323" y="575" width="172.5681025767699" height="15" rx="2" fill="#3fd68b" opacity="0.14"/><rect x="1070" y="578" width="60" height="8" rx="5" fill="#3fd68b"/><rect x="1160" y="578" width="46" height="8" rx="5" fill="#4a4a50"/><rect x="1168.92684671795" y="596" width="111.07315328205004" height="15" rx="2" fill="#3fd68b" opacity="0.14"/><rect x="1070" y="599" width="60" height="8" rx="5" fill="#3fd68b"/><rect x="1160" y="599" width="46" height="8" rx="5" fill="#4a4a50"/><rect x="1159.4016402680427" y="617" width="120.59835973195732" height="15" rx="2" fill="#3fd68b" opacity="0.14"/><rect x="1070" y="620" width="60" height="8" rx="5" fill="#3fd68b"/><rect x="1160" y="620" width="46" height="8" rx="5" fill="#4a4a50"/><rect x="1095.1356083643623" y="638" width="184.86439163563773" height="15" rx="2" fill="#3fd68b" opacity="0.14"/><rect x="1070" y="641" width="60" height="8" rx="5" fill="#3fd68b"/><rect x="1160" y="641" width="46" height="8" rx="5" fill="#4a4a50"/><rect x="1178.3811347233132" y="659" width="101.61886527668685" height="15" rx="2" fill="#3fd68b" opacity="0.14"/><rect x="1070" y="662" width="60" height="8" rx="5" fill="#3fd68b"/><rect x="1160" y="662" width="46" height="8" rx="5" fill="#4a4a50"/><rect x="1158.1437674420886" y="680" width="121.85623255791143" height="15" rx="2" fill="#3fd68b" opacity="0.14"/><rect x="1070" y="683" width="60" height="8" rx="5" fill="#3fd68b"/><rect x="1160" y="683" width="46" height="8" rx="5" fill="#4a4a50"/><rect x="1316" y="152" width="260" height="560" rx="14" fill="#141418" stroke="rgba(245,245,240,0.10)"/><text x="1336" y="186" fill="#d6ff3f" font-size="11" text-anchor="start" letter-spacing="1">LIMIT · BUY</text><rect x="1336" y="205" width="105" height="34" rx="8" fill="#3fd68b" opacity="0.18" stroke="#3fd68b"/><rect x="1451" y="205" width="105" height="34" rx="8" fill="#191920" stroke="rgba(245,245,240,0.10)"/><rect x="1336" y="260" width="220" height="46" rx="8" fill="#191920" stroke="rgba(245,245,240,0.10)"/><rect x="1352" y="278" width="80" height="9" rx="5" fill="#4a4a50"/><rect x="1336" y="326" width="220" height="46" rx="8" fill="#191920" stroke="rgba(245,245,240,0.10)"/><rect x="1352" y="344" width="80" height="9" rx="5" fill="#4a4a50"/><rect x="1336" y="392" width="220" height="46" rx="8" fill="#191920" stroke="rgba(245,245,240,0.10)"/><rect x="1352" y="410" width="80" height="9" rx="5" fill="#4a4a50"/><rect x="1336" y="470" width="220" height="48" rx="24" fill="#d6ff3f"/><text x="1446" y="500" fill="#000" font-size="14" text-anchor="middle" letter-spacing="1">BUY BTC</text><rect x="24" y="728" width="1552" height="240" rx="14" fill="#141418" stroke="rgba(245,245,240,0.10)"/><text x="48" y="762" fill="#82827c" font-size="11" text-anchor="start" letter-spacing="1">OPEN ORDERS</text><line x1="40" y1="790" x2="1560" y2="790" stroke="rgba(245,245,240,0.10)"/><rect x="48" y="806" width="110" height="10" rx="5" fill="#4a4a50"/><rect x="220" y="806" width="70" height="10" rx="5" fill="#3fd68b"/><rect x="360" y="806" width="90" height="10" rx="5" fill="#4a4a50"/><rect x="520" y="806" width="90" height="10" rx="5" fill="#4a4a50"/><rect x="700" y="806" width="130" height="10" rx="5" fill="#4a4a50"/><rect x="1440" y="798" width="100" height="26" rx="13" fill="#191920" stroke="rgba(245,245,240,0.10)"/>
<text x="1490" y="815" fill="#82827c" font-size="11" text-anchor="middle" letter-spacing="1">CANCEL</text><line x1="40" y1="832" x2="1560" y2="832" stroke="rgba(245,245,240,0.10)"/><rect x="48" y="848" width="110" height="10" rx="5" fill="#4a4a50"/><rect x="220" y="848" width="70" height="10" rx="5" fill="#ff5e5e"/><rect x="360" y="848" width="90" height="10" rx="5" fill="#4a4a50"/><rect x="520" y="848" width="90" height="10" rx="5" fill="#4a4a50"/><rect x="700" y="848" width="130" height="10" rx="5" fill="#4a4a50"/><rect x="1440" y="840" width="100" height="26" rx="13" fill="#191920" stroke="rgba(245,245,240,0.10)"/>
<text x="1490" y="857" fill="#82827c" font-size="11" text-anchor="middle" letter-spacing="1">CANCEL</text><line x1="40" y1="874" x2="1560" y2="874" stroke="rgba(245,245,240,0.10)"/><rect x="48" y="890" width="110" height="10" rx="5" fill="#4a4a50"/><rect x="220" y="890" width="70" height="10" rx="5" fill="#3fd68b"/><rect x="360" y="890" width="90" height="10" rx="5" fill="#4a4a50"/><rect x="520" y="890" width="90" height="10" rx="5" fill="#4a4a50"/><rect x="700" y="890" width="130" height="10" rx="5" fill="#4a4a50"/><rect x="1440" y="882" width="100" height="26" rx="13" fill="#191920" stroke="rgba(245,245,240,0.10)"/>
<text x="1490" y="899" fill="#82827c" font-size="11" text-anchor="middle" letter-spacing="1">CANCEL</text><line x1="40" y1="916" x2="1560" y2="916" stroke="rgba(245,245,240,0.10)"/><rect x="48" y="932" width="110" height="10" rx="5" fill="#4a4a50"/><rect x="220" y="932" width="70" height="10" rx="5" fill="#ff5e5e"/><rect x="360" y="932" width="90" height="10" rx="5" fill="#4a4a50"/><rect x="520" y="932" width="90" height="10" rx="5" fill="#4a4a50"/><rect x="700" y="932" width="130" height="10" rx="5" fill="#4a4a50"/><rect x="1440" y="924" width="100" height="26" rx="13" fill="#191920" stroke="rgba(245,245,240,0.10)"/>
<text x="1490" y="941" fill="#82827c" font-size="11" text-anchor="middle" letter-spacing="1">CANCEL</text>
<g opacity="0.55">
  <rect x="1386" y="956" width="198" height="28" rx="14" fill="#191920" stroke="rgba(245,245,240,0.10)"/>
  <text x="1485" y="975" fill="#82827c" font-size="12" text-anchor="middle" letter-spacing="2">PLACEHOLDER</text>
</g>
</svg>