<svg xmlns="http://www.w3.org/2000/svg" viewBox="0 0 1600 1000" font-family="ui-monospace,Menlo,monospace">
<rect width="1600" height="1000" fill="#08080a"/>
<rect width="1600" height="52" fill="#0e0e11"/>
<circle cx="28" cy="26" r="6" fill="#3a3a40"/><circle cx="50" cy="26" r="6" fill="#3a3a40"/><circle cx="72" cy="26" r="6" fill="#3a3a40"/>
<rect x="440" y="12" width="720" height="28" rx="14" fill="#141418" stroke="rgba(245,245,240,0.10)"/>
<text x="800" y="30" fill="#82827c" font-size="12" text-anchor="middle" letter-spacing="1">reserve.restaurant-group.com/book/event-hall</text>
<line x1="0" y1="52" x2="1600" y2="52" stroke="rgba(245,245,240,0.10)"/><rect x="24" y="76" width="1552" height="60" rx="14" fill="#141418" stroke="rgba(245,245,240,0.10)"/><circle cx="200" cy="106" r="13" fill="#191920" stroke="rgba(245,245,240,0.10)"/><text x="200" y="111" fill="#82827c" font-size="12" text-anchor="middle" letter-spacing="1">1</text><text x="224" y="111" fill="#82827c" font-size="12" text-anchor="start" letter-spacing="1">Space</text><line x1="330" y1="106" x2="440" y2="106" stroke="rgba(245,245,240,0.10)"/><circle cx="520" cy="106" r="13" fill="#d6ff3f" stroke="rgba(245,245,240,0.10)"/><text x="520" y="111" fill="#000" font-size="12" text-anchor="middle" letter-spacing="1">2</text><text x="544" y="111" fill="#ededed" font-size="12" text-anchor="start" letter-spacing="1">Date &amp; Time</text><line x1="650" y1="106" x2="760" y2="106" stroke="rgba(245,245,240,0.10)"/><circle cx="840" cy="106" r="13" fill="#191920" stroke="rgba(245,245,240,0.10)"/><text x="840" y="111" fill="#82827c" font-size="12" text-anchor="middle" letter-spacing="1">3</text><text x="864" y="111" fill="#82827c" font-size="12" text-anchor="start" letter-spacing="1">Details</text><line x1="970" y1="106" x2="1080" y2="106" stroke="rgba(245,245,240,0.10)"/><circle cx="1160" cy="106" r="13" fill="#191920" stroke="rgba(245,245,240,0.10)"/><text x="1160" y="111" fill="#82827c" font-size="12" text-anchor="middle" letter-spacing="1">4</text><text x="1184" y="111" fill="#82827c" font-size="12" text-anchor="start" letter-spacing="1">Confirm</text><rect x="24" y="156" width="760" height="620" rx="14" fill="#141418" stroke="rgba(245,245,240,0.10)"/><text x="56" y="200" fill="#ededed" font-size="15" text-anchor="start" letter-spacing="1">OCTOBER 2026</text><rect x="640" y="178" width="110" height="26" rx="13" fill="#191920" stroke="rgba(245,245,240,0.10)"/>
<text x="695" y="195" fill="#82827c" font-size="11" text-anchor="middle" letter-spacing="1">‹    ›</text><text x="90" y="250" fill="#82827c" font-size="11" text-anchor="middle" letter-spacing="1">S</text><text x="190" y="250" fill="#82827c" font-size="11" text-anchor="middle" letter-spacing="1">M</text><text x="290" y="250" fill="#82827c" font-size="11" text-anchor="middle" letter-spacing="1">T</text><text x="390" y="250" fill="#82827c" font-size="11" text-anchor="middle" letter-spacing="1">W</text><text x="490" y="250" fill="#82827c" font-size="11" text-anchor="middle" letter-spacing="1">T</text><text x="590" y="250" fill="#82827c" font-size="11" text-anchor="middle" letter-spacing="1">F</text><text x="690" y="250" fill="#82827c" font-size="11" text-anchor="middle" letter-spacing="1">S</text><rect x="356" y="276" width="72" height="72" rx="10" fill="#191920" stroke="rgba(245,245,240,0.10)" opacity="1"/><text x="368" y="300" fill="#ededed" font-size="13" text-anchor="start" letter-spacing="1">1</text><circle cx="414" cy="334" r="3.5" fill="#3fd68b"/><rect x="456" y="276" width="72" height="72" rx="10" fill="#191920" stroke="rgba(245,245,240,0.10)" opacity="1"/><text x="468" y="300" fill="#ededed" font-size="13" text-anchor="start" letter-spacing="1">2</text><circle cx="514" cy="334" r="3.5" fill="#3fd68b"/><rect x="556" y="276" width="72" height="72" rx="10" fill="#191920" stroke="rgba(245,245,240,0.10)" opacity="1"/><text x="568" y="300" fill="#ededed" font-size="13" text-anchor="start" letter-spacing="1">3</text><circle cx="614" cy="334" r="3.5" fill="#3fd68b"/><rect x="656" y="276" width="72" height="72" rx="10" fill="#191920" stroke="rgba(245,245,240,0.10)" opacity="1"/><text x="668" y="300" fill="#ededed" font-size="13" text-anchor="start" letter-spacing="1">4</text><circle cx="714" cy="334" r="3.5" fill="#3fd68b"/><rect x="56" y="368" width="72" height="72" rx="10" fill="#191920" stroke="rgba(245,245,240,0.10)" opacity="1"/><text x="68" y="392" fill="#ededed" font-size="13" text-anchor="start" letter-spacing="1">5</text><circle cx="114" cy="426" r="3.5" fill="#3fd68b"/><rect x="156" y="368" width="72" height="72" rx="10" fill="#191920" stroke="rgba(245,245,240,0.10)" opacity="1"/><text x="168" y="392" fill="#ededed" font-size="13" text-anchor="start" letter-spacing="1">6</text><circle cx="214" cy="426" r="3.5" fill="#3fd68b"/><rect x="256" y="368" width="72" height="72" rx="10" fill="#191920" stroke="rgba(245,245,240,0.10)" opacity="1"/><text x="268" y="392" fill="#ededed" font-size="13" text-anchor="start" letter-spacing="1">7</text><circle cx="314" cy="426" r="3.5" fill="#3fd68b"/><rect x="356" y="368" width="72" height="72" rx="10" fill="#191920" stroke="rgba(245,245,240,0.10)" opacity="1"/><text x="368" y="392" fill="#ededed" font-size="13" text-anchor="start" letter-spacing="1">8</text><circle cx="414" cy="426" r="3.5" fill="#3fd68b"/><rect x="456" y="368" width="72" height="72" rx="10" fill="#191920" stroke="rgba(245,245,240,0.10)" opacity="1"/><text x="468" y="392" fill="#ededed" font-size="13" text-anchor="start" letter-spacing="1">9</text><circle cx="514" cy="426" r="3.5" fill="#3fd68b"/><rect x="556" y="368" width="72" height="72" rx="10" fill="#191920" stroke="rgba(245,245,240,0.10)" opacity="1"/><text x="568" y="392" fill="#ededed" font-size="13" text-anchor="start" letter-spacing="1">10</text><circle cx="614" cy="426" r="3.5" fill="#3fd68b"/><rect x="656" y="368" width="72" height="72" rx="10" fill="#191920" stroke="rgba(245,245,240,0.10)" opacity="1"/><text x="668" y="392" fill="#ededed" font-size="13" text-anchor="start" letter-spacing="1">11</text><circle cx="714" cy="426" r="3.5" fill="#3fd68b"/><rect x="56" y="460" width="72" height="72" rx="10" fill="#191920" stroke="rgba(245,245,240,0.10)" opacity="1"/><text x="68" y="484" fill="#ededed" font-size="13" text-anchor="start" letter-spacing="1">12</text><circle cx="114" cy="518" r="3.5" fill="#3fd68b"/><rect x="156" y="460" width="72" height="72" rx="10" fill="#191920" stroke="rgba(245,245,240,0.10)" opacity="0.4"/><text x="168" y="484" fill="#4a4a50" font-size="13" text-anchor="start" letter-spacing="1">13</text><rect x="256" y="460" width="72" height="72" rx="10" fill="#d6ff3f"  opacity="1"/><text x="268" y="484" fill="#000" font-size="13" text-anchor="start" letter-spacing="1">14</text><text x="268" y="518" fill="#000" font-size="10" text-anchor="start" letter-spacing="1">3 slots</text><rect x="356" y="460" width="72" height="72" rx="10" fill="#191920" stroke="rgba(245,245,240,0.10)" opacity="1"/><text x="368" y="484" fill="#ededed" font-size="13" text-anchor="start" letter-spacing="1">15</text><circle cx="414" cy="518" r="3.5" fill="#3fd68b"/><rect x="456" y="460" width="72" height="72" rx="10" fill="#191920" stroke="rgba(245,245,240,0.10)" opacity="1"/><text x="468" y="484" fill="#ededed" font-size="13" text-anchor="start" letter-spacing="1">16</text><circle cx="514" cy="518" r="3.5" fill="#3fd68b"/><rect x="556" y="460" width="72" height="72" rx="10" fill="#191920" stroke="rgba(245,245,240,0.10)" opacity="1"/><text x="568" y="484" fill="#ededed" font-size="13" text-anchor="start" letter-spacing="1">17</text><circle cx="614" cy="518" r="3.5" fill="#3fd68b"/><rect x="656" y="460" width="72" height="72" rx="10" fill="#191920" stroke="rgba(245,245,240,0.10)" opacity="1"/><text x="668" y="484" fill="#ededed" font-size="13" text-anchor="start" letter-spacing="1">18</text><circle cx="714" cy="518" r="3.5" fill="#3fd68b"/><rect x="56" y="552" width="72" height="72" rx="10" fill="#191920" stroke="rgba(245,245,240,0.10)" opacity="1"/><text x="68" y="576" fill="#ededed" font-size="13" text-anchor="start" letter-spacing="1">19</text><circle cx="114" cy="610" r="3.5" fill="#3fd68b"/><rect x="156" y="552" width="72" height="72" rx="10" fill="#191920" stroke="rgba(245,245,240,0.10)" opacity="0.4"/><text x="168" y="576" fill="#4a4a50" font-size="13" text-anchor="start" letter-spacing="1">20</text><rect x="256" y="552" width="72" height="72" rx="10" fill="#191920" stroke="rgba(245,245,240,0.10)" opacity="1"/><text x="268" y="576" fill="#ededed" font-size="13" text-anchor="start" letter-spacing="1">21</text><circle cx="314" cy="610" r="3.5" fill="#3fd68b"/><rect x="356" y="552" width="72" height="72" rx="10" fill="#191920" stroke="rgba(245,245,240,0.10)" opacity="1"/><text x="368" y="576" fill="#ededed" font-size="13" text-anchor="start" letter-spacing="1">22</text><circle cx="414" cy="610" r="3.5" fill="#3fd68b"/><rect x="456" y="552" width="72" height="72" rx="10" fill="#191920" stroke="rgba(245,245,240,0.10)" opacity="1"/><text x="468" y="576" fill="#ededed" font-size="13" text-anchor="start" letter-spacing="1">23</text><circle cx="514" cy="610" r="3.5" fill="#3fd68b"/><rect x="556" y="552" width="72" height="72" rx="10" fill="#191920" stroke="rgba(245,245,240,0.10)" opacity="1"/><text x="568" y="576" fill="#ededed" font-size="13" text-anchor="start" letter-spacing="1">24</text><circle cx="614" cy="610" r="3.5" fill="#3fd68b"/><rect x="656" y="552" width="72" height="72" rx="10" fill="#191920" stroke="rgba(245,245,240,0.10)" opacity="1"/><text x="668" y="576" fill="#ededed" font-size="13" text-anchor="start" letter-spacing="1">25</text><circle cx="714" cy="610" r="3.5" fill="#3fd68b"/><rect x="56" y="644" width="72" height="72" rx="10" fill="#191920" stroke="rgba(245,245,240,0.10)" opacity="1"/><text x="68" y="668" fill="#ededed" font-size="13" text-anchor="start" letter-spacing="1">26</text><circle cx="114" cy="702" r="3.5" fill="#3fd68b"/><rect x="156" y="644" width="72" height="72" rx="10" fill="#191920" stroke="rgba(245,245,240,0.10)" opacity="1"/><text x="168" y="668" fill="#ededed" font-size="13" text-anchor="start" letter-spacing="1">27</text><circle cx="214" cy="702" r="3.5" fill="#3fd68b"/><rect x="256" y="644" width="72" height="72" rx="10" fill="#191920" stroke="rgba(245,245,240,0.10)" opacity="1"/><text x="268" y="668" fill="#ededed" font-size="13" text-anchor="start" letter-spacing="1">28</text><circle cx="314" cy="702" r="3.5" fill="#3fd68b"/><rect x="356" y="644" width="72" height="72" rx="10" fill="#191920" stroke="rgba(245,245,240,0.10)" opacity="0.4"/><text x="368" y="668" fill="#4a4a50" font-size="13" text-anchor="start" letter-spacing="1">29</text><rect x="456" y="644" width="72" height="72" rx="10" fill="#191920" stroke="rgba(245,245,240,0.10)" opacity="1"/><text x="468" y="668" fill="#ededed" font-size="13" text-anchor="start" letter-spacing="1">30</text><circle cx="514" cy="702" r="3.5" fill="#3fd68b"/><rect x="556" y="644" width="72" height="72" rx="10" fill="#191920" stroke="rgba(245,245,240,0.10)" opacity="1"/><text x="568" y="668" fill="#ededed" font-size="13" text-anchor="start" letter-spacing="1">31</text><circle cx="614" cy="702" r="3.5" fill="#3fd68b"/><rect x="808" y="156" width="380" height="620" rx="14" fill="#141418" stroke="rgba(245,245,240,0.10)"/><text x="838" y="200" fill="#82827c" font-size="11" text-anchor="start" letter-spacing="1">AVAILABLE SLOTS · OCT 14</text><rect x="838" y="226" width="320" height="64" rx="12" fill="#191920" stroke="rgba(245,245,240,0.10)"/><text x="862" y="254" fill="#ededed" font-size="14" text-anchor="start" letter-spacing="1">11:00 — 15:00</text><text x="862" y="274" fill="#82827c" font-size="10" text-anchor="start" letter-spacing="1">Grand Hall · seats 220</text><rect x="838" y="310" width="320" height="64" rx="12" fill="#20260f" stroke="#d6ff3f"/><text x="862" y="338" fill="#d6ff3f" font-size="14" text-anchor="start" letter-spacing="1">15:30 — 19:30</text><text x="862" y="358" fill="#82827c" font-size="10" text-anchor="start" letter-spacing="1">Grand Hall · seats 220 · LOCKED FOR YOU 4:58</text><rect x="838" y="394" width="320" height="64" rx="12" fill="#191920" stroke="rgba(245,245,240,0.10)"/><text x="862" y="422" fill="#ededed" font-size="14" text-anchor="start" letter-spacing="1">20:00 — 00:00</text><text x="862" y="442" fill="#82827c" font-size="10" text-anchor="start" letter-spacing="1">Grand Hall · seats 220</text><rect x="838" y="500" width="320" height="200" rx="12" fill="#0e0e11" stroke="rgba(245,245,240,0.10)"/><text x="858" y="532" fill="#82827c" font-size="10" text-anchor="start" letter-spacing="1">LIFECYCLE</text><circle cx="878" cy="560" r="5" fill="#d6ff3f"/><line x1="878" y1="565" x2="878" y2="593" stroke="rgba(245,245,240,0.10)"/><text x="900" y="565" fill="#ededed" font-size="12" text-anchor="start" letter-spacing="1">draft</text><circle cx="878" cy="598" r="5" fill="#d6ff3f"/><line x1="878" y1="603" x2="878" y2="631" stroke="rgba(245,245,240,0.10)"/><text x="900" y="603" fill="#ededed" font-size="12" text-anchor="start" letter-spacing="1">pending</text><circle cx="878" cy="636" r="5" fill="#4a4a50"/><text x="900" y="641" fill="#82827c" font-size="12" text-anchor="start" letter-spacing="1">confirmed</text><rect x="1212" y="156" width="364" height="620" rx="14" fill="#141418" stroke="rgba(245,245,240,0.10)"/><text x="1240" y="200" fill="#82827c" font-size="11" text-anchor="start" letter-spacing="1">YOUR RESERVATION</text><rect x="1240" y="220" width="308" height="150" rx="12" fill="#191920"/><rect x="1260" y="245" width="160" height="12" rx="5" fill="#57575e"/><rect x="1260" y="275" width="220" height="9" rx="5" fill="#4a4a50"/><rect x="1260" y="297" width="190" height="9" rx="5" fill="#4a4a50"/><rect x="1260" y="319" width="140" height="9" rx="5" fill="#4a4a50"/><text x="1240" y="420" fill="#82827c" font-size="12" text-anchor="start" letter-spacing="1">Space</text><rect x="1428" y="410" width="120" height="10" rx="5" fill="#57575e"/><line x1="1240" y1="432" x2="1548" y2="432" stroke="rgba(245,245,240,0.10)"/><text x="1240" y="464" fill="#82827c" font-size="12" text-anchor="start" letter-spacing="1">Date</text><rect x="1458" y="454" width="90" height="10" rx="5" fill="#57575e"/><line x1="1240" y1="476" x2="1548" y2="476" stroke="rgba(245,245,240,0.10)"/><text x="1240" y="508" fill="#82827c" font-size="12" text-anchor="start" letter-spacing="1">Guests</text><rect x="1488" y="498" width="60" height="10" rx="5" fill="#57575e"/><line x1="1240" y1="520" x2="1548" y2="520" stroke="rgba(245,245,240,0.10)"/><text x="1240" y="552" fill="#82827c" font-size="12" text-anchor="start" letter-spacing="1">Catering</text><rect x="1438" y="542" width="110" height="10" rx="5" fill="#57575e"/><line x1="1240" y1="564" x2="1548" y2="564" stroke="rgba(245,245,240,0.10)"/><text x="1240" y="596" fill="#82827c" font-size="12" text-anchor="start" letter-spacing="1">Deposit</text><rect x="1468" y="586" width="80" height="10" rx="5" fill="#57575e"/><line x1="1240" y1="608" x2="1548" y2="608" stroke="rgba(245,245,240,0.10)"/><rect x="1240" y="660" width="308" height="52" rx="26" fill="#d6ff3f"/><text x="1394" y="692" fill="#000" font-size="13" text-anchor="middle" letter-spacing="1">CONFIRM BOOKING</text><rect x="24" y="800" width="1552" height="168" rx="14" fill="#141418" stroke="rgba(245,245,240,0.10)"/><text x="56" y="840" fill="#82827c" font-size="11" text-anchor="start" letter-spacing="1">ADMIN · TODAY</text><rect x="56" y="860" width="350" height="80" rx="12" fill="#191920" stroke="rgba(245,245,240,0.10)"/><rect x="80" y="885" width="120" height="10" rx="5" fill="#57575e"/><rect x="80" y="908" width="200" height="8" rx="5" fill="#4a4a50"/><rect x="300" y="878" width="84" height="26" rx="13" fill="#191920" stroke="rgba(245,245,240,0.10)"/>
<text x="342" y="895" fill="#3fd68b" font-size="11" text-anchor="middle" letter-spacing="1">CONFIRMED</text><rect x="436" y="860" width="350" height="80" rx="12" fill="#191920" stroke="rgba(245,245,240,0.10)"/><rect x="460" y="885" width="120" height="10" rx="5" fill="#57575e"/><rect x="460" y="908" width="200" height="8" rx="5" fill="#4a4a50"/><rect x="680" y="878" width="84" height="26" rx="13" fill="#191920" stroke="rgba(245,245,240,0.10)"/>
<text x="722" y="895" fill="#d6ff3f" font-size="11" text-anchor="middle" letter-spacing="1">PENDING</text><rect x="816" y="860" width="350" height="80" rx="12" fill="#191920" stroke="rgba(245,245,240,0.10)"/><rect x="840" y="885" width="120" height="10" rx="5" fill="#57575e"/><rect x="840" y="908" width="200" height="8" rx="5" fill="#4a4a50"/><rect x="1060" y="878" width="84" height="26" rx="13" fill="#191920" stroke="rgba(245,245,240,0.10)"/>
<text x="1102" y="895" fill="#ededed" font-size="11" text-anchor="middle" letter-spacing="1">SEATED</text><rect x="1196" y="860" width="350" height="80" rx="12" fill="#191920" stroke="rgba(245,245,240,0.10)"/><rect x="1220" y="885" width="120" height="10" rx="5" fill="#57575e"/><rect x="1220" y="908" width="200" height="8" rx="5" fill="#4a4a50"/><rect x="1440" y="878" width="84" height="26" rx="13" fill="#191920" stroke="rgba(245,245,240,0.10)"/>
<text x="1482" y="895" fill="#ff5e5e" font-size="11" text-anchor="middle" letter-spacing="1">NO-SHOW</text>
<g opacity="0.55">
  <rect x="1386" y="956" width="198" height="28" rx="14" fill="#191920" stroke="rgba(245,245,240,0.10)"/>
  <text x="1485" y="975" fill="#82827c" font-size="12" text-anchor="middle" letter-spacing="2">PLACEHOLDER</text>
</g>
</svg>